<?xml version="1.0" encoding="UTF-8" standalone="no"?>
<!-- Created with Inkscape (http://www.inkscape.org/) -->

<svg
   xmlns:dc="http://purl.org/dc/elements/1.1/"
   xmlns:cc="http://creativecommons.org/ns#"
   xmlns:rdf="http://www.w3.org/1999/02/22-rdf-syntax-ns#"
   xmlns:svg="http://www.w3.org/2000/svg"
   xmlns="http://www.w3.org/2000/svg"
   xmlns:sodipodi="http://sodipodi.sourceforge.net/DTD/sodipodi-0.dtd"
   xmlns:inkscape="http://www.inkscape.org/namespaces/inkscape"
   width="307.0961"
   height="49.742046"
   id="svg2"
   version="1.1"
   inkscape:version="0.48.5 r10040"
   sodipodi:docname="komputekofonto.svg">
  <defs
     id="defs4" />
  <sodipodi:namedview
     id="base"
     pagecolor="#ffffff"
     bordercolor="#666666"
     borderopacity="1.0"
     inkscape:pageopacity="0.0"
     inkscape:pageshadow="2"
     inkscape:zoom="1.979899"
     inkscape:cx="258.89593"
     inkscape:cy="-23.326442"
     inkscape:document-units="px"
     inkscape:current-layer="flowRoot2985"
     showgrid="false"
     fit-margin-top="5"
     fit-margin-left="5"
     fit-margin-right="5"
     fit-margin-bottom="5"
     inkscape:window-width="1358"
     inkscape:window-height="651"
     inkscape:window-x="0"
     inkscape:window-y="31"
     inkscape:window-maximized="0" />
  <metadata
     id="metadata7">
    <rdf:RDF>
      <cc:Work
         rdf:about="">
        <dc:format>image/svg+xml</dc:format>
        <dc:type
           rdf:resource="http://purl.org/dc/dcmitype/StillImage" />
        <dc:title></dc:title>
      </cc:Work>
    </rdf:RDF>
  </metadata>
  <g
     inkscape:label="Tavolo 1"
     inkscape:groupmode="layer"
     id="layer1"
     transform="translate(-21.11875,-234.39601)">
    <g
       style="font-size:40px;font-style:normal;font-weight:normal;line-height:125%;letter-spacing:0px;word-spacing:0px;fill:#3ea9c3;fill-opacity:1;stroke:none;font-family:Sans"
       id="flowRoot2985">
      <path
         d="m 51.31875,266.59601 c 0.02664,0.10667 0.03997,0.2 0.04,0.28 -2.6e-5,0.34667 -0.173359,0.65334 -0.52,0.92 -0.346691,0.26667 -0.720024,0.4 -1.12,0.4 l -3.2,0 c -0.72002,0 -1.253353,-0.53333 -1.6,-1.6 l -3.2,-9.6 c -0.346682,-1.06665 -0.880015,-1.59998 -1.6,-1.6 l -2.8,0 c -0.453344,2e-5 -0.840011,0.16002 -1.16,0.48 -0.293343,0.29335 -0.44001,0.66668 -0.44,1.12 l 0,9.6 c -1e-5,0.45334 -0.16001,0.84 -0.48,1.16 -0.293343,0.29334 -0.666676,0.44 -1.12,0.44 l -6.4,0 c -0.453335,0 -0.840001,-0.14666 -1.16,-0.44 -0.293334,-0.32 -0.44,-0.70666 -0.44,-1.16 l 0,-25.6 c 0,-0.4533 0.146666,-0.82664 0.44,-1.12 0.319999,-0.31997 0.706665,-0.47997 1.16,-0.48 l 6.4,0 c 0.453324,3e-5 0.826657,0.16003 1.12,0.48 0.31999,0.29336 0.47999,0.6667 0.48,1.12 l 0,9.6 c -1e-5,0.45335 0.146657,0.84002 0.44,1.16 0.319989,0.29335 0.706656,0.44002 1.16,0.44 l 2.8,0 c 0.719985,2e-5 1.253318,-0.53331 1.6,-1.6 l 3.2,-9.6 c 0.346647,-1.06664 0.87998,-1.59997 1.6,-1.6 l 3.2,0 c 0.399976,3e-5 0.773309,0.13337 1.12,0.4 0.346641,0.2667 0.519974,0.57336 0.52,0.92 -2.6e-5,0.08 -0.01336,0.17336 -0.04,0.28 l -3.76,11.2 c -0.320022,0.96002 -0.466688,1.49335 -0.44,1.6 -0.02669,0.10668 0.119978,0.64002 0.44,1.6 l 3.76,11.2"
         style="font-variant:normal;font-stretch:normal;fill:#3ea9c3;font-family:Black Wolf;-inkscape-font-specification:Black Wolf"
         id="path3845"
         inkscape:connector-curvature="0" />
      <path
         d="m 77.375,264.99601 c -2.4e-5,0.88001 -0.320024,1.64 -0.96,2.28 -0.613356,0.61334 -1.360022,0.92 -2.24,0.92 l -17.2,0 c -0.880003,0 -1.640002,-0.30666 -2.28,-0.92 -0.613334,-0.64 -0.92,-1.39999 -0.92,-2.28 l 0,-16 c 0,-0.87998 0.306666,-1.62664 0.92,-2.24 0.639998,-0.63997 1.399997,-0.95997 2.28,-0.96 l 17.2,0 c 0.879978,3e-5 1.626644,0.32003 2.24,0.96 0.639976,0.61336 0.959976,1.36002 0.96,2.24 l 0,16 m -6.4,-3.2 0,-9.6 c -1.8e-5,-0.87998 -0.320017,-1.62665 -0.96,-2.24 -0.613349,-0.63998 -1.360015,-0.95998 -2.24,-0.96 l -1.2,0 c -0.880012,2e-5 -1.640012,0.32002 -2.28,0.96 -0.613344,0.61335 -0.92001,1.36002 -0.92,2.24 l 0,9.6 c -1e-5,0.88001 0.306656,1.64001 0.92,2.28 0.639988,0.61334 1.399988,0.92001 2.28,0.92 l 1.2,0 c 0.879985,10e-6 1.626651,-0.30666 2.24,-0.92 0.639983,-0.63999 0.959982,-1.39999 0.96,-2.28"
         style="font-variant:normal;font-stretch:normal;fill:#3ea9c3;font-family:Black Wolf;-inkscape-font-specification:Black Wolf"
         id="path3847"
         inkscape:connector-curvature="0" />
      <path
         d="m 111.79063,266.59601 c -4e-5,0.45334 -0.16004,0.84 -0.48,1.16 -0.29337,0.29334 -0.6667,0.44 -1.12001,0.44 l -3.2,0 c -0.45336,0 -0.84002,-0.14666 -1.16,-0.44 -0.29335,-0.32 -0.44002,-0.70666 -0.43999,-1.16 l 0,-16 c -3e-5,-0.45331 -0.16003,-0.82665 -0.48001,-1.12 -0.29335,-0.31998 -0.66669,-0.47998 -1.11999,-0.48 l -1.6,0 c -0.45336,2e-5 -0.84003,0.16002 -1.16,0.48 -0.29336,0.29335 -0.44003,0.66669 -0.44,1.12 l 0,16 c -3e-5,0.45334 -0.16003,0.84 -0.48,1.16 -0.293359,0.29334 -0.666692,0.44 -1.120005,0.44 l -3.2,0 c -0.453349,0 -0.840016,-0.14666 -1.16,-0.44 -0.293348,-0.32 -0.440015,-0.70666 -0.44,-1.16 l 0,-16 c -1.5e-5,-0.45331 -0.160015,-0.82665 -0.48,-1.12 -0.293347,-0.31998 -0.66668,-0.47998 -1.12,-0.48 l -1.6,0 c -0.453344,2e-5 -0.840011,0.16002 -1.16,0.48 -0.293343,0.29335 -0.44001,0.66669 -0.44,1.12 l 0,16 c -1e-5,0.45334 -0.16001,0.84 -0.48,1.16 -0.293343,0.29334 -0.666676,0.44 -1.12,0.44 l -6.4,0 c -0.453335,0 -0.840001,-0.14666 -1.16,-0.44 -0.293334,-0.32 -0.44,-0.70666 -0.44,-1.16 l 0,-19.2 c 0,-0.45331 0.146666,-0.82664 0.44,-1.12 0.319999,-0.31997 0.706665,-0.47997 1.16,-0.48 l 27.200005,0 c 0.87996,3e-5 1.62663,0.32003 2.23999,0.96 0.63997,0.61336 0.95997,1.36002 0.96001,2.24 l 0,17.6"
         style="font-variant:normal;font-stretch:normal;fill:#3ea9c3;font-family:Black Wolf;-inkscape-font-specification:Black Wolf"
         id="path3849"
         inkscape:connector-curvature="0" />
      <path
         d="m 137.76562,264.99601 c -2e-5,0.88001 -0.32002,1.64 -0.96,2.28 -0.61335,0.61334 -1.36002,0.92 -2.24,0.92 l -9.2,0 c -0.45334,0 -0.84001,0.14667 -1.16,0.44 -0.29334,0.32 -0.44001,0.70667 -0.43999,1.16 l 0,3.2 c -2e-5,0.45333 -0.16001,0.82666 -0.48001,1.12 -0.29334,0.32 -0.66667,0.48 -1.11999,0.48 l -6.4,0 c -0.45334,0 -0.84001,-0.16 -1.16,-0.48 -0.29334,-0.29334 -0.44001,-0.66667 -0.44,-1.12 l 0,-25.6 c -10e-6,-0.45331 0.14666,-0.82664 0.44,-1.12 0.31999,-0.31997 0.70666,-0.47997 1.16,-0.48 l 18.79999,0 c 0.87998,3e-5 1.62665,0.32003 2.24,0.96 0.63998,0.61336 0.95998,1.36002 0.96,2.24 l 0,16 m -6.4,-1.6 0,-12.8 c -1e-5,-0.45331 -0.16001,-0.82665 -0.48,-1.12 -0.29335,-0.31998 -0.66668,-0.47998 -1.12,-0.48 l -4.4,0 c -0.45334,2e-5 -0.84001,0.16002 -1.16,0.48 -0.29334,0.29335 -0.44001,0.66669 -0.43999,1.12 l 0,12.8 c -2e-5,0.45334 0.14665,0.84001 0.43999,1.16 0.31999,0.29334 0.70666,0.44001 1.16,0.44 l 4.4,0 c 0.45332,10e-6 0.82665,-0.14666 1.12,-0.44 0.31999,-0.31999 0.47999,-0.70666 0.48,-1.16"
         style="font-variant:normal;font-stretch:normal;fill:#3ea9c3;font-family:Black Wolf;-inkscape-font-specification:Black Wolf"
         id="path3851"
         inkscape:connector-curvature="0" />
      <path
         d="m 163.78125,264.99601 c -2e-5,0.88001 -0.32002,1.64 -0.96,2.28 -0.61336,0.61334 -1.36002,0.92 -2.24,0.92 l -18.8,0 c -0.45333,0 -0.84,-0.14666 -1.16,-0.44 -0.29333,-0.32 -0.44,-0.70666 -0.44,-1.16 l 0,-19.2 c 0,-0.45331 0.14667,-0.82664 0.44,-1.12 0.32,-0.31997 0.70667,-0.47997 1.16,-0.48 l 6.4,0 c 0.45332,3e-5 0.82666,0.16003 1.12,0.48 0.31999,0.29336 0.47999,0.66669 0.48,1.12 l 0,16 c -1e-5,0.45334 0.14666,0.84001 0.44,1.16 0.31999,0.29334 0.70666,0.44001 1.16,0.44 l 4.4,0 c 0.45332,10e-6 0.82665,-0.14666 1.12,-0.44 0.31998,-0.31999 0.47998,-0.70666 0.48,-1.16 l 0,-16 c -2e-5,-0.45331 0.14665,-0.82664 0.44,-1.12 0.31998,-0.31997 0.70665,-0.47997 1.16,-0.48 l 3.2,0 c 0.45331,3e-5 0.82664,0.16003 1.12,0.48 0.31998,0.29336 0.47998,0.66669 0.48,1.12 l 0,17.6"
         style="font-variant:normal;font-stretch:normal;fill:#3ea9c3;font-family:Black Wolf;-inkscape-font-specification:Black Wolf"
         id="path3853"
         inkscape:connector-curvature="0" />
      <path
         d="m 188.19687,247.39601 c -2e-5,0.45336 -0.16002,0.84002 -0.47999,1.16 -0.29336,0.29336 -0.66669,0.44002 -1.12001,0.44 l -4.4,0 c -0.45334,2e-5 -0.84001,0.16002 -1.16,0.48 -0.29334,0.29335 -0.44001,0.66669 -0.44,1.12 l 0,16 c -1e-5,0.45334 -0.16001,0.84 -0.48,1.16 -0.29334,0.29334 -0.66668,0.44 -1.12,0.44 l -6.4,0 c -0.45333,0 -0.84,-0.14666 -1.16,-0.44 -0.29333,-0.32 -0.44,-0.70666 -0.44,-1.16 l 0,-16 c 0,-0.45331 -0.16,-0.82665 -0.48,-1.12 -0.29333,-0.31998 -0.66667,-0.47998 -1.12,-0.48 l -1.6,0 c -0.45333,2e-5 -0.84,-0.14664 -1.16,-0.44 -0.29333,-0.31998 -0.44,-0.70664 -0.44,-1.16 0,-0.45331 0.14667,-0.82664 0.44,-1.12 0.32,-0.31997 0.70667,-0.47997 1.16,-0.48 l 1.6,0.04 c 0.45333,3e-5 0.82667,-0.14664 1.12,-0.44 0.32,-0.31997 0.48,-0.70664 0.48,-1.16 l 0,-3.24 c 0,-0.4533 0.14667,-0.82664 0.44,-1.12 0.32,-0.31997 0.70667,-0.47997 1.16,-0.48 l 6.4,0 c 0.45332,3e-5 0.82666,0.16003 1.12,0.48 0.31999,0.29336 0.47999,0.6667 0.48,1.12 l 0,3.2 c -1e-5,0.45336 0.14666,0.84003 0.44,1.16 0.31999,0.29336 0.70666,0.44003 1.16,0.44 l 4.4,0 c 0.45332,3e-5 0.82665,0.16003 1.12001,0.48 0.31997,0.29336 0.47997,0.66669 0.47999,1.12"
         style="font-variant:normal;font-stretch:normal;fill:#3ea9c3;font-family:Black Wolf;-inkscape-font-specification:Black Wolf"
         id="path3855"
         inkscape:connector-curvature="0" />
      <path
         d="m 214.17187,264.99601 c -2e-5,0.88001 -0.32002,1.64 -0.96,2.28 -0.61335,0.61334 -1.36002,0.92 -2.24,0.92 l -18.8,0 c -0.45333,0 -0.84,-0.14666 -1.16,-0.44 -0.29333,-0.32 -0.44,-0.70666 -0.44,-1.16 l 0,-19.2 c 0,-0.45331 0.14667,-0.82664 0.44,-1.12 0.32,-0.31997 0.70667,-0.47997 1.16,-0.48 l 18.8,0 c 0.87998,3e-5 1.62665,0.32003 2.24,0.96 0.63998,0.61336 0.95998,1.36002 0.96,2.24 l 0,4.8 c -2e-5,0.88002 -0.32002,1.64002 -0.96,2.28 -0.61335,0.61335 -1.36002,0.92001 -2.24,0.92 l -9.2,0 c -0.45334,10e-6 -0.84001,0.16001 -1.16,0.48 -0.29334,0.29335 -0.44001,0.66668 -0.44,1.12 l 0,4.8 c -1e-5,0.45334 0.14666,0.84001 0.44,1.16 0.31999,0.29334 0.70666,0.44001 1.16,0.44 l 4.4,0 c 0.45332,10e-6 0.82665,-0.14666 1.12,-0.44 0.31999,-0.31999 0.47999,-0.70666 0.48,-1.16 l 0,-1.6 c -1e-5,-0.45332 0.14665,-0.82666 0.44,-1.12 0.31999,-0.31999 0.70665,-0.47999 1.16,-0.48 l 3.2,0 c 0.45332,10e-6 0.82665,0.16001 1.12,0.48 0.31998,0.29334 0.47998,0.66668 0.48,1.12 l 0,3.2 m -6.4,-12.8 0,-1.6 c -1e-5,-0.45331 -0.16001,-0.82665 -0.48,-1.12 -0.29335,-0.31998 -0.66668,-0.47998 -1.12,-0.48 l -4.4,0 c -0.45334,2e-5 -0.84001,0.16002 -1.16,0.48 -0.29334,0.29335 -0.44001,0.66669 -0.44,1.12 l 0,1.6 c -1e-5,0.45335 0.14666,0.84002 0.44,1.16 0.31999,0.29335 0.70666,0.44002 1.16,0.44 l 4.4,0 c 0.45332,2e-5 0.82665,-0.14665 1.12,-0.44 0.31999,-0.31998 0.47999,-0.70665 0.48,-1.16"
         style="font-variant:normal;font-stretch:normal;fill:#3ea9c3;font-family:Black Wolf;-inkscape-font-specification:Black Wolf"
         id="path3857"
         inkscape:connector-curvature="0" />
      <path
         d="m 239.1475,266.59601 c 0.0266,0.10667 0.04,0.2 0.04,0.28 -2e-5,0.34667 -0.17336,0.65334 -0.52,0.92 -0.34669,0.26667 -0.72002,0.4 -1.12,0.4 l -3.2,0 c -0.72002,0 -1.25335,-0.53333 -1.6,-1.6 l -2.16,-6.4 c -0.34668,-1.06665 -0.88001,-1.59999 -1.6,-1.6 l -1.2,0 c -0.45334,1e-5 -0.84001,0.16001 -1.16,0.48 -0.29334,0.29335 -0.44001,0.66668 -0.44,1.12 l 0,6.4 c -1e-5,0.45334 -0.16001,0.84 -0.48,1.16 -0.29334,0.29334 -0.66668,0.44 -1.12,0.44 l -6.4,0 c -0.45333,0 -0.84,-0.14666 -1.16,-0.44 -0.29333,-0.32 -0.44,-0.70666 -0.44,-1.16 l 0,-25.6 c 0,-0.4533 0.14667,-0.82664 0.44,-1.12 0.32,-0.31997 0.70667,-0.47997 1.16,-0.48 l 6.4,0 c 0.45332,3e-5 0.82666,0.16003 1.12,0.48 0.31999,0.29336 0.47999,0.6667 0.48,1.12 l 0,12.8 c -1e-5,0.45335 0.14666,0.84002 0.44,1.16 0.31999,0.29335 0.70666,0.44002 1.16,0.44 l 1.2,0 c 0.71999,2e-5 1.25332,-0.53332 1.6,-1.6 l 2.16,-6.4 c 0.34665,-1.06664 0.87998,-1.59997 1.6,-1.6 l 3.2,0 c 0.39998,3e-5 0.77331,0.13336 1.12,0.4 0.34664,0.26669 0.51998,0.57336 0.52,0.92 -2e-5,0.08 -0.0134,0.17336 -0.04,0.28 l -2.72,8 c -0.32002,0.96001 -0.46669,1.49335 -0.44,1.6 -0.0267,0.10668 0.11998,0.64001 0.44,1.6 l 2.72,8"
         style="font-variant:normal;font-stretch:normal;fill:#3ea9c3;font-family:Black Wolf;-inkscape-font-specification:Black Wolf"
         id="path3859"
         inkscape:connector-curvature="0" />
      <path
         d="m 265.1875,264.99601 c -2e-5,0.88001 -0.32002,1.64 -0.96,2.28 -0.61336,0.61334 -1.36002,0.92 -2.24,0.92 l -17.2,0 c -0.88,0 -1.64,-0.30666 -2.28,-0.92 -0.61333,-0.64 -0.92,-1.39999 -0.92,-2.28 l 0,-16 c 0,-0.87998 0.30667,-1.62664 0.92,-2.24 0.64,-0.63997 1.4,-0.95997 2.28,-0.96 l 17.2,0 c 0.87998,3e-5 1.62664,0.32003 2.24,0.96 0.63998,0.61336 0.95998,1.36002 0.96,2.24 l 0,16 m -6.4,-3.2 0,-9.6 c -2e-5,-0.87998 -0.32002,-1.62665 -0.96,-2.24 -0.61335,-0.63998 -1.36002,-0.95998 -2.24,-0.96 l -1.2,0 c -0.88001,2e-5 -1.64001,0.32002 -2.28,0.96 -0.61334,0.61335 -0.92001,1.36002 -0.92,2.24 l 0,9.6 c -1e-5,0.88001 0.30666,1.64001 0.92,2.28 0.63999,0.61334 1.39999,0.92001 2.28,0.92 l 1.2,0 c 0.87998,10e-6 1.62665,-0.30666 2.24,-0.92 0.63998,-0.63999 0.95998,-1.39999 0.96,-2.28"
         style="font-variant:normal;font-stretch:normal;fill:#3ea9c3;font-family:Black Wolf;-inkscape-font-specification:Black Wolf"
         id="path3861"
         inkscape:connector-curvature="0" />
    </g>
  </g>
</svg>
