<?xml version="1.0" encoding="UTF-8" standalone="no"?>
<!-- Created with Inkscape (http://www.inkscape.org/) -->

<svg
   xmlns:dc="http://purl.org/dc/elements/1.1/"
   xmlns:cc="http://creativecommons.org/ns#"
   xmlns:rdf="http://www.w3.org/1999/02/22-rdf-syntax-ns#"
   xmlns:svg="http://www.w3.org/2000/svg"
   xmlns="http://www.w3.org/2000/svg"
   version="1.2"
   width="307.0961"
   height="49.742046"
   id="svg2">
  <defs
     id="defs4" />
  <metadata
     id="metadata7">
    <rdf:RDF>
      <cc:Work
         rdf:about="">
        <dc:format>image/svg+xml</dc:format>
        <dc:type
           rdf:resource="http://purl.org/dc/dcmitype/StillImage" />
        <dc:title></dc:title>
      </cc:Work>
    </rdf:RDF>
  </metadata>
  <g
     transform="translate(-21.11875,-234.39601)"
     id="layer1">
    <g
       id="flowRoot2985"
       style="font-size:40px;font-style:normal;font-weight:normal;line-height:125%;letter-spacing:0px;word-spacing:0px;fill:#3ea9c3;fill-opacity:1;stroke:none;font-family:Sans">
      <path
         d="m 51.31875,266.59601 c 0.02664,0.10667 0.03997,0.2 0.04,0.28 -2.6e-5,0.34667 -0.173359,0.65334 -0.52,0.92 -0.346691,0.26667 -0.720024,0.4 -1.12,0.4 l -3.2,0 c -0.72002,0 -1.253353,-0.53333 -1.6,-1.6 l -3.2,-9.6 c -0.346682,-1.06665 -0.880015,-1.59998 -1.6,-1.6 l -2.8,0 c -0.453344,2e-5 -0.840011,0.16002 -1.16,0.48 -0.293343,0.29335 -0.44001,0.66668 -0.44,1.12 l 0,9.6 c -1e-5,0.45334 -0.16001,0.84 -0.48,1.16 -0.293343,0.29334 -0.666676,0.44 -1.12,0.44 l -6.4,0 c -0.453335,0 -0.840001,-0.14666 -1.16,-0.44 -0.293334,-0.32 -0.44,-0.70666 -0.44,-1.16 l 0,-25.6 c 0,-0.4533 0.146666,-0.82664 0.44,-1.12 0.319999,-0.31997 0.706665,-0.47997 1.16,-0.48 l 6.4,0 c 0.453324,3e-5 0.826657,0.16003 1.12,0.48 0.31999,0.29336 0.47999,0.6667 0.48,1.12 l 0,9.6 c -1e-5,0.45335 0.146657,0.84002 0.44,1.16 0.319989,0.29335 0.706656,0.44002 1.16,0.44 l 2.8,0 c 0.719985,2e-5 1.253318,-0.53331 1.6,-1.6 l 3.2,-9.6 c 0.346647,-1.06664 0.87998,-1.59997 1.6,-1.6 l 3.2,0 c 0.399976,3e-5 0.773309,0.13337 1.12,0.4 0.346641,0.2667 0.519974,0.57336 0.52,0.92 -2.6e-5,0.08 -0.01336,0.17336 -0.04,0.28 l -3.76,11.2 c -0.320022,0.96002 -0.466688,1.49335 -0.44,1.6 -0.02669,0.10668 0.119978,0.64002 0.44,1.6 l 3.76,11.2"
         id="path3845"
         style="font-variant:normal;font-stretch:normal;fill:#3ea9c3;font-family:Black Wolf;-inkscape-font-specification:Black Wolf" />
      <path
         d="m 77.375,264.99601 c -2.4e-5,0.88001 -0.320024,1.64 -0.96,2.28 -0.613356,0.61334 -1.360022,0.92 -2.24,0.92 l -17.2,0 c -0.880003,0 -1.640002,-0.30666 -2.28,-0.92 -0.613334,-0.64 -0.92,-1.39999 -0.92,-2.28 l 0,-16 c 0,-0.87998 0.306666,-1.62664 0.92,-2.24 0.639998,-0.63997 1.399997,-0.95997 2.28,-0.96 l 17.2,0 c 0.879978,3e-5 1.626644,0.32003 2.24,0.96 0.639976,0.61336 0.959976,1.36002 0.96,2.24 l 0,16 m -6.4,-3.2 0,-9.6 c -1.8e-5,-0.87998 -0.320017,-1.62665 -0.96,-2.24 -0.613349,-0.63998 -1.360015,-0.95998 -2.24,-0.96 l -1.2,0 c -0.880012,2e-5 -1.640012,0.32002 -2.28,0.96 -0.613344,0.61335 -0.92001,1.36002 -0.92,2.24 l 0,9.6 c -1e-5,0.88001 0.306656,1.64001 0.92,2.28 0.639988,0.61334 1.399988,0.92001 2.28,0.92 l 1.2,0 c 0.879985,10e-6 1.626651,-0.30666 2.24,-0.92 0.639983,-0.63999 0.959982,-1.39999 0.96,-2.28"
         id="path3847"
         style="font-variant:normal;font-stretch:normal;fill:#3ea9c3;font-family:Black Wolf;-inkscape-font-specification:Black Wolf" />
      <path
         d="m 111.79063,266.59601 c -4e-5,0.45334 -0.16004,0.84 -0.48,1.16 -0.29337,0.29334 -0.6667,0.44 -1.12001,0.44 l -3.2,0 c -0.45336,0 -0.84002,-0.14666 -1.16,-0.44 -0.29335,-0.32 -0.44002,-0.70666 -0.43999,-1.16 l 0,-16 c -3e-5,-0.45331 -0.16003,-0.82665 -0.48001,-1.12 -0.29335,-0.31998 -0.66669,-0.47998 -1.11999,-0.48 l -1.6,0 c -0.45336,2e-5 -0.84003,0.16002 -1.16,0.48 -0.29336,0.29335 -0.44003,0.66669 -0.44,1.12 l 0,16 c -3e-5,0.45334 -0.16003,0.84 -0.48,1.16 -0.293359,0.29334 -0.666692,0.44 -1.120005,0.44 l -3.2,0 c -0.453349,0 -0.840016,-0.14666 -1.16,-0.44 -0.293348,-0.32 -0.440015,-0.70666 -0.44,-1.16 l 0,-16 c -1.5e-5,-0.45331 -0.160015,-0.82665 -0.48,-1.12 -0.293347,-0.31998 -0.66668,-0.47998 -1.12,-0.48 l -1.6,0 c -0.453344,2e-5 -0.840011,0.16002 -1.16,0.48 -0.293343,0.29335 -0.44001,0.66669 -0.44,1.12 l 0,16 c -1e-5,0.45334 -0.16001,0.84 -0.48,1.16 -0.293343,0.29334 -0.666676,0.44 -1.12,0.44 l -6.4,0 c -0.453335,0 -0.840001,-0.14666 -1.16,-0.44 -0.293334,-0.32 -0.44,-0.70666 -0.44,-1.16 l 0,-19.2 c 0,-0.45331 0.146666,-0.82664 0.44,-1.12 0.319999,-0.31997 0.706665,-0.47997 1.16,-0.48 l 27.200005,0 c 0.87996,3e-5 1.62663,0.32003 2.23999,0.96 0.63997,0.61336 0.95997,1.36002 0.96001,2.24 l 0,17.6"
         id="path3849"
         style="font-variant:normal;font-stretch:normal;fill:#3ea9c3;font-family:Black Wolf;-inkscape-font-specification:Black Wolf" />
      <path
         d="m 137.76562,264.99601 c -2e-5,0.88001 -0.32002,1.64 -0.96,2.28 -0.61335,0.61334 -1.36002,0.92 -2.24,0.92 l -9.2,0 c -0.45334,0 -0.84001,0.14667 -1.16,0.44 -0.29334,0.32 -0.44001,0.70667 -0.43999,1.16 l 0,3.2 c -2e-5,0.45333 -0.16001,0.82666 -0.48001,1.12 -0.29334,0.32 -0.66667,0.48 -1.11999,0.48 l -6.4,0 c -0.45334,0 -0.84001,-0.16 -1.16,-0.48 -0.29334,-0.29334 -0.44001,-0.66667 -0.44,-1.12 l 0,-25.6 c -10e-6,-0.45331 0.14666,-0.82664 0.44,-1.12 0.31999,-0.31997 0.70666,-0.47997 1.16,-0.48 l 18.79999,0 c 0.87998,3e-5 1.62665,0.32003 2.24,0.96 0.63998,0.61336 0.95998,1.36002 0.96,2.24 l 0,16 m -6.4,-1.6 0,-12.8 c -1e-5,-0.45331 -0.16001,-0.82665 -0.48,-1.12 -0.29335,-0.31998 -0.66668,-0.47998 -1.12,-0.48 l -4.4,0 c -0.45334,2e-5 -0.84001,0.16002 -1.16,0.48 -0.29334,0.29335 -0.44001,0.66669 -0.43999,1.12 l 0,12.8 c -2e-5,0.45334 0.14665,0.84001 0.43999,1.16 0.31999,0.29334 0.70666,0.44001 1.16,0.44 l 4.4,0 c 0.45332,10e-6 0.82665,-0.14666 1.12,-0.44 0.31999,-0.31999 0.47999,-0.70666 0.48,-1.16"
         id="path3851"
         style="font-variant:normal;font-stretch:normal;fill:#3ea9c3;font-family:Black Wolf;-inkscape-font-specification:Black Wolf" />
      <path
         d="m 163.78125,264.99601 c -2e-5,0.88001 -0.32002,1.64 -0.96,2.28 -0.61336,0.61334 -1.36002,0.92 -2.24,0.92 l -18.8,0 c -0.45333,0 -0.84,-0.14666 -1.16,-0.44 -0.29333,-0.32 -0.44,-0.70666 -0.44,-1.16 l 0,-19.2 c 0,-0.45331 0.14667,-0.82664 0.44,-1.12 0.32,-0.31997 0.70667,-0.47997 1.16,-0.48 l 6.4,0 c 0.45332,3e-5 0.82666,0.16003 1.12,0.48 0.31999,0.29336 0.47999,0.66669 0.48,1.12 l 0,16 c -1e-5,0.45334 0.14666,0.84001 0.44,1.16 0.31999,0.29334 0.70666,0.44001 1.16,0.44 l 4.4,0 c 0.45332,10e-6 0.82665,-0.14666 1.12,-0.44 0.31998,-0.31999 0.47998,-0.70666 0.48,-1.16 l 0,-16 c -2e-5,-0.45331 0.14665,-0.82664 0.44,-1.12 0.31998,-0.31997 0.70665,-0.47997 1.16,-0.48 l 3.2,0 c 0.45331,3e-5 0.82664,0.16003 1.12,0.48 0.31998,0.29336 0.47998,0.66669 0.48,1.12 l 0,17.6"
         id="path3853"
         style="font-variant:normal;font-stretch:normal;fill:#3ea9c3;font-family:Black Wolf;-inkscape-font-specification:Black Wolf" />
      <path
         d="m 188.19687,247.39601 c -2e-5,0.45336 -0.16002,0.84002 -0.47999,1.16 -0.29336,0.29336 -0.66669,0.44002 -1.12001,0.44 l -4.4,0 c -0.45334,2e-5 -0.84001,0.16002 -1.16,0.48 -0.29334,0.29335 -0.44001,0.66669 -0.44,1.12 l 0,16 c -1e-5,0.45334 -0.16001,0.84 -0.48,1.16 -0.29334,0.29334 -0.66668,0.44 -1.12,0.44 l -6.4,0 c -0.45333,0 -0.84,-0.14666 -1.16,-0.44 -0.29333,-0.32 -0.44,-0.70666 -0.44,-1.16 l 0,-16 c 0,-0.45331 -0.16,-0.82665 -0.48,-1.12 -0.29333,-0.31998 -0.66667,-0.47998 -1.12,-0.48 l -1.6,0 c -0.45333,2e-5 -0.84,-0.14664 -1.16,-0.44 -0.29333,-0.31998 -0.44,-0.70664 -0.44,-1.16 0,-0.45331 0.14667,-0.82664 0.44,-1.12 0.32,-0.31997 0.70667,-0.47997 1.16,-0.48 l 1.6,0.04 c 0.45333,3e-5 0.82667,-0.14664 1.12,-0.44 0.32,-0.31997 0.48,-0.70664 0.48,-1.16 l 0,-3.24 c 0,-0.4533 0.14667,-0.82664 0.44,-1.12 0.32,-0.31997 0.70667,-0.47997 1.16,-0.48 l 6.4,0 c 0.45332,3e-5 0.82666,0.16003 1.12,0.48 0.31999,0.29336 0.47999,0.6667 0.48,1.12 l 0,3.2 c -1e-5,0.45336 0.14666,0.84003 0.44,1.16 0.31999,0.29336 0.70666,0.44003 1.16,0.44 l 4.4,0 c 0.45332,3e-5 0.82665,0.16003 1.12001,0.48 0.31997,0.29336 0.47997,0.66669 0.47999,1.12"
         id="path3855"
         style="font-variant:normal;font-stretch:normal;fill:#3ea9c3;font-family:Black Wolf;-inkscape-font-specification:Black Wolf" />
      <path
         d="m 214.17187,264.99601 c -2e-5,0.88001 -0.32002,1.64 -0.96,2.28 -0.61335,0.61334 -1.36002,0.92 -2.24,0.92 l -18.8,0 c -0.45333,0 -0.84,-0.14666 -1.16,-0.44 -0.29333,-0.32 -0.44,-0.70666 -0.44,-1.16 l 0,-19.2 c 0,-0.45331 0.14667,-0.82664 0.44,-1.12 0.32,-0.31997 0.70667,-0.47997 1.16,-0.48 l 18.8,0 c 0.87998,3e-5 1.62665,0.32003 2.24,0.96 0.63998,0.61336 0.95998,1.36002 0.96,2.24 l 0,4.8 c -2e-5,0.88002 -0.32002,1.64002 -0.96,2.28 -0.61335,0.61335 -1.36002,0.92001 -2.24,0.92 l -9.2,0 c -0.45334,10e-6 -0.84001,0.16001 -1.16,0.48 -0.29334,0.29335 -0.44001,0.66668 -0.44,1.12 l 0,4.8 c -1e-5,0.45334 0.14666,0.84001 0.44,1.16 0.31999,0.29334 0.70666,0.44001 1.16,0.44 l 4.4,0 c 0.45332,10e-6 0.82665,-0.14666 1.12,-0.44 0.31999,-0.31999 0.47999,-0.70666 0.48,-1.16 l 0,-1.6 c -1e-5,-0.45332 0.14665,-0.82666 0.44,-1.12 0.31999,-0.31999 0.70665,-0.47999 1.16,-0.48 l 3.2,0 c 0.45332,10e-6 0.82665,0.16001 1.12,0.48 0.31998,0.29334 0.47998,0.66668 0.48,1.12 l 0,3.2 m -6.4,-12.8 0,-1.6 c -1e-5,-0.45331 -0.16001,-0.82665 -0.48,-1.12 -0.29335,-0.31998 -0.66668,-0.47998 -1.12,-0.48 l -4.4,0 c -0.45334,2e-5 -0.84001,0.16002 -1.16,0.48 -0.29334,0.29335 -0.44001,0.66669 -0.44,1.12 l 0,1.6 c -1e-5,0.45335 0.14666,0.84002 0.44,1.16 0.31999,0.29335 0.70666,0.44002 1.16,0.44 l 4.4,0 c 0.45332,2e-5 0.82665,-0.14665 1.12,-0.44 0.31999,-0.31998 0.47999,-0.70665 0.48,-1.16"
         id="path3857"
         style="font-variant:normal;font-stretch:normal;fill:#3ea9c3;font-family:Black Wolf;-inkscape-font-specification:Black Wolf" />
      <path
         d="m 239.1475,266.59601 c 0.0266,0.10667 0.04,0.2 0.04,0.28 -2e-5,0.34667 -0.17336,0.65334 -0.52,0.92 -0.34669,0.26667 -0.72002,0.4 -1.12,0.4 l -3.2,0 c -0.72002,0 -1.25335,-0.53333 -1.6,-1.6 l -2.16,-6.4 c -0.34668,-1.06665 -0.88001,-1.59999 -1.6,-1.6 l -1.2,0 c -0.45334,1e-5 -0.84001,0.16001 -1.16,0.48 -0.29334,0.29335 -0.44001,0.66668 -0.44,1.12 l 0,6.4 c -1e-5,0.45334 -0.16001,0.84 -0.48,1.16 -0.29334,0.29334 -0.66668,0.44 -1.12,0.44 l -6.4,0 c -0.45333,0 -0.84,-0.14666 -1.16,-0.44 -0.29333,-0.32 -0.44,-0.70666 -0.44,-1.16 l 0,-25.6 c 0,-0.4533 0.14667,-0.82664 0.44,-1.12 0.32,-0.31997 0.70667,-0.47997 1.16,-0.48 l 6.4,0 c 0.45332,3e-5 0.82666,0.16003 1.12,0.48 0.31999,0.29336 0.47999,0.6667 0.48,1.12 l 0,12.8 c -1e-5,0.45335 0.14666,0.84002 0.44,1.16 0.31999,0.29335 0.70666,0.44002 1.16,0.44 l 1.2,0 c 0.71999,2e-5 1.25332,-0.53332 1.6,-1.6 l 2.16,-6.4 c 0.34665,-1.06664 0.87998,-1.59997 1.6,-1.6 l 3.2,0 c 0.39998,3e-5 0.77331,0.13336 1.12,0.4 0.34664,0.26669 0.51998,0.57336 0.52,0.92 -2e-5,0.08 -0.0134,0.17336 -0.04,0.28 l -2.72,8 c -0.32002,0.96001 -0.46669,1.49335 -0.44,1.6 -0.0267,0.10668 0.11998,0.64001 0.44,1.6 l 2.72,8"
         id="path3859"
         style="font-variant:normal;font-stretch:normal;fill:#3ea9c3;font-family:Black Wolf;-inkscape-font-specification:Black Wolf" />
      <path
         d="m 265.1875,264.99601 c -2e-5,0.88001 -0.32002,1.64 -0.96,2.28 -0.61336,0.61334 -1.36002,0.92 -2.24,0.92 l -17.2,0 c -0.88,0 -1.64,-0.30666 -2.28,-0.92 -0.61333,-0.64 -0.92,-1.39999 -0.92,-2.28 l 0,-16 c 0,-0.87998 0.30667,-1.62664 0.92,-2.24 0.64,-0.63997 1.4,-0.95997 2.28,-0.96 l 17.2,0 c 0.87998,3e-5 1.62664,0.32003 2.24,0.96 0.63998,0.61336 0.95998,1.36002 0.96,2.24 l 0,16 m -6.4,-3.2 0,-9.6 c -2e-5,-0.87998 -0.32002,-1.62665 -0.96,-2.24 -0.61335,-0.63998 -1.36002,-0.95998 -2.24,-0.96 l -1.2,0 c -0.88001,2e-5 -1.64001,0.32002 -2.28,0.96 -0.61334,0.61335 -0.92001,1.36002 -0.92,2.24 l 0,9.6 c -1e-5,0.88001 0.30666,1.64001 0.92,2.28 0.63999,0.61334 1.39999,0.92001 2.28,0.92 l 1.2,0 c 0.87998,10e-6 1.62665,-0.30666 2.24,-0.92 0.63998,-0.63999 0.95998,-1.39999 0.96,-2.28"
         id="path3861"
         style="font-variant:normal;font-stretch:normal;fill:#3ea9c3;font-family:Black Wolf;-inkscape-font-specification:Black Wolf" />
      <g
         id="flowRoot3863"
         style="font-size:12px;fill:#000000;font-family:Sans">
        <path
           d="m 127.16016,277.47399 0,-5.83203 1.15234,0 0,4.81641 2.46484,0 0,1.01562 -3.61718,0"
           id="path4006"
           style="font-size:8px;font-variant:normal;font-weight:bold;font-stretch:normal;fill:#000000;font-family:DejaVu Sans Mono;-inkscape-font-specification:DejaVu Sans Mono Bold" />
        <path
           d="m 133.82812,275.41931 c -0.42708,0 -0.72526,0.0547 -0.89453,0.16406 -0.16927,0.10938 -0.2539,0.29687 -0.2539,0.5625 0,0.19792 0.0586,0.35547 0.17578,0.47265 0.11718,0.11719 0.27604,0.17579 0.47656,0.17579 0.30208,0 0.53646,-0.11328 0.70313,-0.33985 0.16666,-0.22916 0.24999,-0.54817 0.25,-0.95703 l 0,-0.0781 -0.45704,0 m 1.59375,-0.44141 0,2.49609 -1.13671,0 0,-0.48828 c -0.13803,0.19271 -0.31511,0.34115 -0.53125,0.44531 -0.21615,0.10417 -0.45443,0.15625 -0.71485,0.15625 -0.49739,0 -0.88542,-0.13151 -1.16406,-0.39453 -0.27604,-0.26302 -0.41406,-0.6302 -0.41406,-1.10156 0,-0.51041 0.16536,-0.88672 0.49609,-1.12891 0.33073,-0.24478 0.84245,-0.36718 1.53516,-0.36718 l 0.79297,0 0,-0.19141 c -1e-5,-0.18489 -0.0677,-0.32421 -0.20313,-0.41797 -0.13281,-0.0963 -0.32943,-0.14453 -0.58984,-0.14453 -0.27344,0 -0.53907,0.0352 -0.79688,0.10547 -0.25521,0.0677 -0.52213,0.17709 -0.80078,0.32812 l 0,-0.97656 c 0.2526,-0.10416 0.50911,-0.18098 0.76953,-0.23047 0.26042,-0.0495 0.53646,-0.0742 0.82813,-0.0742 0.71093,10e-6 1.20963,0.14454 1.49609,0.4336 0.28906,0.28906 0.43359,0.80599 0.43359,1.55078"
           id="path4008"
           style="font-size:8px;font-variant:normal;font-weight:bold;font-stretch:normal;fill:#000000;font-family:DejaVu Sans Mono;-inkscape-font-specification:DejaVu Sans Mono Bold" />
        <path
           d="m 143.41406,273.53649 c 0.0859,-0.18489 0.19531,-0.32161 0.32813,-0.41015 0.13281,-0.0885 0.29557,-0.13281 0.48828,-0.13282 0.3776,1e-5 0.63802,0.13022 0.78125,0.39063 0.14583,0.26042 0.21874,0.80209 0.21875,1.625 l 0,2.46484 -0.9375,0 0,-2.80859 c 0,-0.32552 -0.0247,-0.54297 -0.0742,-0.65234 -0.0495,-0.10938 -0.13933,-0.16406 -0.26953,-0.16407 -0.13021,10e-6 -0.22136,0.056 -0.27344,0.16797 -0.0521,0.11198 -0.0781,0.32813 -0.0781,0.64844 l 0,2.80859 -0.92579,0 0,-2.80859 c 0,-0.32031 -0.026,-0.53646 -0.0781,-0.64844 -0.0521,-0.11197 -0.14323,-0.16796 -0.27344,-0.16797 -0.13021,10e-6 -0.22005,0.0547 -0.26953,0.16407 -0.0495,0.10937 -0.0742,0.32682 -0.0742,0.65234 l 0,2.80859 -0.9375,0 0,-4.375 0.83203,0 0,0.45313 c 0.0651,-0.17187 0.16927,-0.30729 0.3125,-0.40625 0.14323,-0.10156 0.30339,-0.15234 0.48047,-0.15235 0.17708,1e-5 0.33854,0.0534 0.48438,0.16016 0.14583,0.10417 0.23437,0.23178 0.26562,0.38281"
           id="path4010"
           style="font-size:8px;font-variant:normal;font-weight:bold;font-stretch:normal;fill:#000000;font-family:DejaVu Sans Mono;-inkscape-font-specification:DejaVu Sans Mono Bold" />
        <path
           d="m 146.15625,275.94665 0,-2.84766 1.14453,0 0,2.67188 c 0,0.3151 0.0443,0.54036 0.13281,0.67578 0.0885,0.13542 0.23568,0.20313 0.44141,0.20312 0.20573,1e-5 0.36588,-0.0911 0.48047,-0.27343 0.11718,-0.18229 0.17578,-0.4375 0.17578,-0.76563 l 0,-2.51172 1.14453,0 0,4.375 -1.14453,0 0,-0.64843 c -0.0807,0.24218 -0.21875,0.42968 -0.41406,0.5625 -0.19271,0.13281 -0.42579,0.19921 -0.69922,0.19921 -0.41667,0 -0.73177,-0.13802 -0.94531,-0.41406 -0.21094,-0.27604 -0.31641,-0.68489 -0.31641,-1.22656"
           id="path4012"
           style="font-size:8px;font-variant:normal;font-weight:bold;font-stretch:normal;fill:#000000;font-family:DejaVu Sans Mono;-inkscape-font-specification:DejaVu Sans Mono Bold" />
        <path
           d="m 151.85547,275.64977 0,-3.375 -1.16016,0 0,-0.8789 2.30469,0 0,4.2539 c 0,0.34376 0.0534,0.58725 0.16016,0.73047 0.10676,0.14323 0.28775,0.21485 0.54296,0.21485 l 0.91407,0 0,0.8789 -1.23438,0 c -0.54427,0 -0.9349,-0.14062 -1.17187,-0.42187 -0.23698,-0.28125 -0.35547,-0.7487 -0.35547,-1.40235"
           id="path4014"
           style="font-size:8px;font-variant:normal;font-weight:bold;font-stretch:normal;fill:#000000;font-family:DejaVu Sans Mono;-inkscape-font-specification:DejaVu Sans Mono Bold" />
        <path
           d="m 157.85156,271.85681 0,1.24218 1.4961,0 0,0.87891 -1.4961,0 0,2.07031 c 0,0.19532 0.0469,0.33594 0.14063,0.42188 0.0964,0.0833 0.2552,0.125 0.47656,0.125 l 0.87891,0 0,0.8789 -0.96094,0 c -0.65625,0 -1.10026,-0.10416 -1.33203,-0.3125 -0.23178,-0.21093 -0.34766,-0.60026 -0.34766,-1.16797 l 0,-2.01562 -1.11719,0 0,-0.87891 1.11719,0 0,-1.24218 1.14453,0"
           id="path4016"
           style="font-size:8px;font-variant:normal;font-weight:bold;font-stretch:normal;fill:#000000;font-family:DejaVu Sans Mono;-inkscape-font-specification:DejaVu Sans Mono Bold" />
        <path
           d="m 161.48047,275.64977 0,-3.375 -1.16016,0 0,-0.8789 2.30469,0 0,4.2539 c 0,0.34376 0.0534,0.58725 0.16016,0.73047 0.10676,0.14323 0.28775,0.21485 0.54296,0.21485 l 0.91407,0 0,0.8789 -1.23438,0 c -0.54427,0 -0.9349,-0.14062 -1.17187,-0.42187 -0.23698,-0.28125 -0.35547,-0.7487 -0.35547,-1.40235"
           id="path4018"
           style="font-size:8px;font-variant:normal;font-weight:bold;font-stretch:normal;fill:#000000;font-family:DejaVu Sans Mono;-inkscape-font-specification:DejaVu Sans Mono Bold" />
        <path
           d="m 165.64453,273.09899 2.26563,0 0,3.4961 1.42187,0 0,0.8789 -3.99219,0 0,-0.8789 1.42578,0 0,-2.61719 -1.12109,0 0,-0.87891 m 1.12109,-2.1289 1.14454,0 0,1.33593 -1.14454,0 0,-1.33593"
           id="path4020"
           style="font-size:8px;font-variant:normal;font-weight:bold;font-stretch:normal;fill:#000000;font-family:DejaVu Sans Mono;-inkscape-font-specification:DejaVu Sans Mono Bold" />
        <path
           d="m 173.77734,274.63415 0,2.83984 -1.13672,0 0,-2.66406 c 0,-0.3177 -0.0456,-0.54427 -0.13671,-0.67969 -0.0885,-0.13801 -0.23438,-0.20702 -0.4375,-0.20703 -0.20574,1e-5 -0.3685,0.0925 -0.48829,0.27735 -0.11718,0.18489 -0.17578,0.4414 -0.17578,0.76953 l 0,2.5039 -1.13672,0 0,-4.375 1.13672,0 0,0.65625 c 0.0807,-0.24218 0.21875,-0.42968 0.41407,-0.5625 0.19531,-0.1328 0.43098,-0.19921 0.70703,-0.19922 0.41406,1e-5 0.72656,0.13803 0.9375,0.41407 0.21093,0.27344 0.3164,0.68229 0.3164,1.22656"
           id="path4022"
           style="font-size:8px;font-variant:normal;font-weight:bold;font-stretch:normal;fill:#000000;font-family:DejaVu Sans Mono;-inkscape-font-specification:DejaVu Sans Mono Bold" />
        <path
           d="m 177.54297,275.21618 c 0,-0.39062 -0.0742,-0.70312 -0.22266,-0.9375 -0.14844,-0.23697 -0.34375,-0.35546 -0.58594,-0.35547 -0.23958,1e-5 -0.43359,0.11719 -0.58203,0.35156 -0.14583,0.23438 -0.21875,0.54818 -0.21875,0.94141 0,0.39584 0.0729,0.71094 0.21875,0.94531 0.14844,0.23438 0.34245,0.35157 0.58203,0.35157 0.24219,0 0.4375,-0.11719 0.58594,-0.35157 0.14844,-0.23697 0.22266,-0.55208 0.22266,-0.94531 m 1.14453,1.92969 c 0,0.70052 -0.15886,1.20573 -0.47656,1.51562 -0.31511,0.3125 -0.82813,0.46875 -1.53907,0.46875 -0.23958,0 -0.47656,-0.0182 -0.71093,-0.0547 -0.23438,-0.0339 -0.47266,-0.0872 -0.71485,-0.16016 l 0,-1.05078 c 0.21615,0.11979 0.4362,0.20833 0.66016,0.26562 0.22396,0.0573 0.45443,0.0859 0.69141,0.0859 0.32291,0 0.56119,-0.0768 0.71484,-0.23047 0.15364,-0.15104 0.23047,-0.38802 0.23047,-0.71094 l 0,-0.47265 c -0.11198,0.20833 -0.26042,0.36328 -0.44531,0.46484 -0.1849,0.10156 -0.41016,0.15235 -0.67579,0.15235 -0.5,0 -0.89713,-0.19532 -1.1914,-0.58594 -0.29427,-0.39063 -0.44141,-0.92057 -0.44141,-1.58985 0,-0.6927 0.14714,-1.24218 0.44141,-1.64843 0.29427,-0.40625 0.6888,-0.60937 1.18359,-0.60938 0.25,10e-6 0.47266,0.0586 0.66797,0.17578 0.19531,0.11719 0.34896,0.28256 0.46094,0.4961 l 0,-0.5586 1.14453,0 0,4.04688"
           id="path4024"
           style="font-size:8px;font-variant:normal;font-weight:bold;font-stretch:normal;fill:#000000;font-family:DejaVu Sans Mono;-inkscape-font-specification:DejaVu Sans Mono Bold" />
        <path
           d="m 183.72266,273.09899 -1.39063,4.375 -1.41016,0 -1.39062,-4.375 1.16016,0 0.93359,3.41407 0.9375,-3.41407 1.16016,0"
           id="path4026"
           style="font-size:8px;font-variant:normal;font-weight:bold;font-stretch:normal;fill:#000000;font-family:DejaVu Sans Mono;-inkscape-font-specification:DejaVu Sans Mono Bold" />
        <path
           d="m 186.76562,275.41931 c -0.42708,0 -0.72526,0.0547 -0.89453,0.16406 -0.16927,0.10938 -0.2539,0.29687 -0.2539,0.5625 0,0.19792 0.0586,0.35547 0.17578,0.47265 0.11718,0.11719 0.27604,0.17579 0.47656,0.17579 0.30208,0 0.53646,-0.11328 0.70313,-0.33985 0.16666,-0.22916 0.24999,-0.54817 0.25,-0.95703 l 0,-0.0781 -0.45704,0 m 1.59375,-0.44141 0,2.49609 -1.13671,0 0,-0.48828 c -0.13803,0.19271 -0.31511,0.34115 -0.53125,0.44531 -0.21615,0.10417 -0.45443,0.15625 -0.71485,0.15625 -0.49739,0 -0.88542,-0.13151 -1.16406,-0.39453 -0.27604,-0.26302 -0.41406,-0.6302 -0.41406,-1.10156 0,-0.51041 0.16536,-0.88672 0.49609,-1.12891 0.33073,-0.24478 0.84245,-0.36718 1.53516,-0.36718 l 0.79297,0 0,-0.19141 c -1e-5,-0.18489 -0.0677,-0.32421 -0.20313,-0.41797 -0.13281,-0.0963 -0.32943,-0.14453 -0.58984,-0.14453 -0.27344,0 -0.53907,0.0352 -0.79688,0.10547 -0.25521,0.0677 -0.52213,0.17709 -0.80078,0.32812 l 0,-0.97656 c 0.2526,-0.10416 0.50911,-0.18098 0.76953,-0.23047 0.26042,-0.0495 0.53646,-0.0742 0.82813,-0.0742 0.71093,10e-6 1.20963,0.14454 1.49609,0.4336 0.28906,0.28906 0.43359,0.80599 0.43359,1.55078"
           id="path4028"
           style="font-size:8px;font-variant:normal;font-weight:bold;font-stretch:normal;fill:#000000;font-family:DejaVu Sans Mono;-inkscape-font-specification:DejaVu Sans Mono Bold" />
        <path
           d="m 195.38281,276.85681 0,2.28125 -1.14062,0 0,-6.03907 1.14062,0 0,0.65625 c 0.11979,-0.2526 0.27734,-0.4427 0.47266,-0.57031 0.19531,-0.1276 0.42448,-0.1914 0.6875,-0.19141 0.5,1e-5 0.88802,0.20053 1.16406,0.60157 0.27604,0.40104 0.41406,0.96615 0.41406,1.69531 0,0.73958 -0.14063,1.30729 -0.42187,1.70312 -0.27865,0.39584 -0.67709,0.59375 -1.19531,0.59375 -0.23438,0 -0.44532,-0.0599 -0.63282,-0.17968 -0.18489,-0.1224 -0.34765,-0.30599 -0.48828,-0.55078 m 1.59375,-1.57422 c 0,-0.42188 -0.0703,-0.7526 -0.21094,-0.99219 -0.14062,-0.23958 -0.33463,-0.35937 -0.58203,-0.35938 -0.24739,1e-5 -0.44271,0.1198 -0.58593,0.35938 -0.14323,0.23959 -0.21485,0.57031 -0.21485,0.99219 0,0.42187 0.0716,0.7526 0.21485,0.99218 0.14322,0.23959 0.33854,0.35938 0.58593,0.35938 0.2474,0 0.44141,-0.11979 0.58203,-0.35938 0.14063,-0.23958 0.21094,-0.57031 0.21094,-0.99218"
           id="path4030"
           style="font-size:8px;font-variant:normal;font-weight:bold;font-stretch:normal;fill:#000000;font-family:DejaVu Sans Mono;-inkscape-font-specification:DejaVu Sans Mono Bold" />
        <path
           d="m 202.96484,274.30602 c -0.125,-0.11458 -0.27214,-0.20051 -0.4414,-0.25781 -0.16667,-0.0573 -0.35027,-0.0859 -0.55078,-0.0859 -0.24219,10e-6 -0.45443,0.043 -0.63672,0.12891 -0.17969,0.0833 -0.31902,0.20573 -0.41797,0.36719 -0.0625,0.099 -0.10677,0.21875 -0.13281,0.35937 -0.0234,0.14063 -0.0352,0.35417 -0.0352,0.64063 l 0,2.01562 -1.14453,0 0,-4.375 1.14453,0 0,0.67969 c 0.11198,-0.25 0.28385,-0.4427 0.51562,-0.57812 0.23177,-0.13802 0.50261,-0.20703 0.8125,-0.20704 0.15625,10e-6 0.30859,0.0195 0.45704,0.0586 0.15103,0.0365 0.29426,0.0911 0.42968,0.16406 l 0,1.08984"
           id="path4032"
           style="font-size:8px;font-variant:normal;font-weight:bold;font-stretch:normal;fill:#000000;font-family:DejaVu Sans Mono;-inkscape-font-specification:DejaVu Sans Mono Bold" />
        <path
           d="m 204.14453,273.09899 2.26563,0 0,3.4961 1.42187,0 0,0.8789 -3.99219,0 0,-0.8789 1.42578,0 0,-2.61719 -1.12109,0 0,-0.87891 m 1.12109,-2.1289 1.14454,0 0,1.33593 -1.14454,0 0,-1.33593"
           id="path4034"
           style="font-size:8px;font-variant:normal;font-weight:bold;font-stretch:normal;fill:#000000;font-family:DejaVu Sans Mono;-inkscape-font-specification:DejaVu Sans Mono Bold" />
        <path
           d="m 208.77344,271.39587 1.14453,0 0,3.1914 1.375,-1.48828 1.38672,0 -1.65625,1.63282 1.75,2.74218 -1.26563,0 -1.19922,-2.04687 -0.39062,0.375 0,1.67187 -1.14453,0 0,-6.07812"
           id="path4036"
           style="font-size:8px;font-variant:normal;font-weight:bold;font-stretch:normal;fill:#000000;font-family:DejaVu Sans Mono;-inkscape-font-specification:DejaVu Sans Mono Bold" />
        <path
           d="m 215.3125,273.92321 c -0.27344,1e-5 -0.48828,0.1211 -0.64453,0.36328 -0.15625,0.23959 -0.23438,0.57422 -0.23438,1.00391 0,0.42969 0.0781,0.76563 0.23438,1.00781 0.15625,0.23959 0.37109,0.35938 0.64453,0.35938 0.27604,0 0.49218,-0.11979 0.64844,-0.35938 0.15624,-0.24218 0.23437,-0.57812 0.23437,-1.00781 0,-0.42969 -0.0781,-0.76432 -0.23437,-1.00391 -0.15626,-0.24218 -0.3724,-0.36327 -0.64844,-0.36328 m -2.02344,1.36719 c 0,-0.70573 0.18229,-1.26432 0.54688,-1.67578 0.36718,-0.41406 0.85937,-0.62109 1.47656,-0.6211 0.61979,1e-5 1.11198,0.20704 1.47656,0.6211 0.36719,0.41146 0.55078,0.97005 0.55078,1.67578 0,0.70573 -0.18359,1.26563 -0.55078,1.67969 -0.36458,0.41146 -0.85677,0.61718 -1.47656,0.61718 -0.61719,0 -1.10938,-0.20572 -1.47656,-0.61718 -0.36459,-0.41406 -0.54688,-0.97396 -0.54688,-1.67969"
           id="path4038"
           style="font-size:8px;font-variant:normal;font-weight:bold;font-stretch:normal;fill:#000000;font-family:DejaVu Sans Mono;-inkscape-font-specification:DejaVu Sans Mono Bold" />
        <path
           d="m 220.41406,273.53649 c 0.0859,-0.18489 0.19531,-0.32161 0.32813,-0.41015 0.13281,-0.0885 0.29557,-0.13281 0.48828,-0.13282 0.3776,1e-5 0.63802,0.13022 0.78125,0.39063 0.14583,0.26042 0.21874,0.80209 0.21875,1.625 l 0,2.46484 -0.9375,0 0,-2.80859 c 0,-0.32552 -0.0247,-0.54297 -0.0742,-0.65234 -0.0495,-0.10938 -0.13933,-0.16406 -0.26953,-0.16407 -0.13021,10e-6 -0.22136,0.056 -0.27344,0.16797 -0.0521,0.11198 -0.0781,0.32813 -0.0781,0.64844 l 0,2.80859 -0.92579,0 0,-2.80859 c 0,-0.32031 -0.026,-0.53646 -0.0781,-0.64844 -0.0521,-0.11197 -0.14323,-0.16796 -0.27344,-0.16797 -0.13021,10e-6 -0.22005,0.0547 -0.26953,0.16407 -0.0495,0.10937 -0.0742,0.32682 -0.0742,0.65234 l 0,2.80859 -0.9375,0 0,-4.375 0.83203,0 0,0.45313 c 0.0651,-0.17187 0.16927,-0.30729 0.3125,-0.40625 0.14323,-0.10156 0.30339,-0.15234 0.48047,-0.15235 0.17708,1e-5 0.33854,0.0534 0.48438,0.16016 0.14583,0.10417 0.23437,0.23178 0.26562,0.38281"
           id="path4040"
           style="font-size:8px;font-variant:normal;font-weight:bold;font-stretch:normal;fill:#000000;font-family:DejaVu Sans Mono;-inkscape-font-specification:DejaVu Sans Mono Bold" />
        <path
           d="m 224.25781,276.85681 0,2.28125 -1.14062,0 0,-6.03907 1.14062,0 0,0.65625 c 0.11979,-0.2526 0.27734,-0.4427 0.47266,-0.57031 0.19531,-0.1276 0.42448,-0.1914 0.6875,-0.19141 0.5,1e-5 0.88802,0.20053 1.16406,0.60157 0.27604,0.40104 0.41406,0.96615 0.41406,1.69531 0,0.73958 -0.14063,1.30729 -0.42187,1.70312 -0.27865,0.39584 -0.67709,0.59375 -1.19531,0.59375 -0.23438,0 -0.44532,-0.0599 -0.63282,-0.17968 -0.18489,-0.1224 -0.34765,-0.30599 -0.48828,-0.55078 m 1.59375,-1.57422 c 0,-0.42188 -0.0703,-0.7526 -0.21094,-0.99219 -0.14062,-0.23958 -0.33463,-0.35937 -0.58203,-0.35938 -0.24739,1e-5 -0.44271,0.1198 -0.58593,0.35938 -0.14323,0.23959 -0.21485,0.57031 -0.21485,0.99219 0,0.42187 0.0716,0.7526 0.21485,0.99218 0.14322,0.23959 0.33854,0.35938 0.58593,0.35938 0.2474,0 0.44141,-0.11979 0.58203,-0.35938 0.14063,-0.23958 0.21094,-0.57031 0.21094,-0.99218"
           id="path4042"
           style="font-size:8px;font-variant:normal;font-weight:bold;font-stretch:normal;fill:#000000;font-family:DejaVu Sans Mono;-inkscape-font-specification:DejaVu Sans Mono Bold" />
        <path
           d="m 227.96875,275.94665 0,-2.84766 1.14453,0 0,2.67188 c 0,0.3151 0.0443,0.54036 0.13281,0.67578 0.0885,0.13542 0.23568,0.20313 0.44141,0.20312 0.20573,1e-5 0.36588,-0.0911 0.48047,-0.27343 0.11718,-0.18229 0.17578,-0.4375 0.17578,-0.76563 l 0,-2.51172 1.14453,0 0,4.375 -1.14453,0 0,-0.64843 c -0.0807,0.24218 -0.21875,0.42968 -0.41406,0.5625 -0.19271,0.13281 -0.42579,0.19921 -0.69922,0.19921 -0.41667,0 -0.73177,-0.13802 -0.94531,-0.41406 -0.21094,-0.27604 -0.31641,-0.68489 -0.31641,-1.22656"
           id="path4044"
           style="font-size:8px;font-variant:normal;font-weight:bold;font-stretch:normal;fill:#000000;font-family:DejaVu Sans Mono;-inkscape-font-specification:DejaVu Sans Mono Bold" />
        <path
           d="m 234.85156,271.85681 0,1.24218 1.4961,0 0,0.87891 -1.4961,0 0,2.07031 c 0,0.19532 0.0469,0.33594 0.14063,0.42188 0.0964,0.0833 0.2552,0.125 0.47656,0.125 l 0.87891,0 0,0.8789 -0.96094,0 c -0.65625,0 -1.10026,-0.10416 -1.33203,-0.3125 -0.23178,-0.21093 -0.34766,-0.60026 -0.34766,-1.16797 l 0,-2.01562 -1.11719,0 0,-0.87891 1.11719,0 0,-1.24218 1.14453,0"
           id="path4046"
           style="font-size:8px;font-variant:normal;font-weight:bold;font-stretch:normal;fill:#000000;font-family:DejaVu Sans Mono;-inkscape-font-specification:DejaVu Sans Mono Bold" />
        <path
           d="m 237.83203,273.09899 2.26563,0 0,3.4961 1.42187,0 0,0.8789 -3.99219,0 0,-0.8789 1.42578,0 0,-2.61719 -1.12109,0 0,-0.87891 m 1.12109,-2.1289 1.14454,0 0,1.33593 -1.14454,0 0,-1.33593"
           id="path4048"
           style="font-size:8px;font-variant:normal;font-weight:bold;font-stretch:normal;fill:#000000;font-family:DejaVu Sans Mono;-inkscape-font-specification:DejaVu Sans Mono Bold" />
        <path
           d="m 243.29297,275.64977 0,-3.375 -1.16016,0 0,-0.8789 2.30469,0 0,4.2539 c 0,0.34376 0.0534,0.58725 0.16016,0.73047 0.10676,0.14323 0.28775,0.21485 0.54296,0.21485 l 0.91407,0 0,0.8789 -1.23438,0 c -0.54427,0 -0.9349,-0.14062 -1.17187,-0.42187 -0.23698,-0.28125 -0.35547,-0.7487 -0.35547,-1.40235"
           id="path4050"
           style="font-size:8px;font-variant:normal;font-weight:bold;font-stretch:normal;fill:#000000;font-family:DejaVu Sans Mono;-inkscape-font-specification:DejaVu Sans Mono Bold" />
        <path
           d="m 249.32812,275.41931 c -0.42708,0 -0.72526,0.0547 -0.89453,0.16406 -0.16927,0.10938 -0.2539,0.29687 -0.2539,0.5625 0,0.19792 0.0586,0.35547 0.17578,0.47265 0.11718,0.11719 0.27604,0.17579 0.47656,0.17579 0.30208,0 0.53646,-0.11328 0.70313,-0.33985 0.16666,-0.22916 0.24999,-0.54817 0.25,-0.95703 l 0,-0.0781 -0.45704,0 m 1.59375,-0.44141 0,2.49609 -1.13671,0 0,-0.48828 c -0.13803,0.19271 -0.31511,0.34115 -0.53125,0.44531 -0.21615,0.10417 -0.45443,0.15625 -0.71485,0.15625 -0.49739,0 -0.88542,-0.13151 -1.16406,-0.39453 -0.27604,-0.26302 -0.41406,-0.6302 -0.41406,-1.10156 0,-0.51041 0.16536,-0.88672 0.49609,-1.12891 0.33073,-0.24478 0.84245,-0.36718 1.53516,-0.36718 l 0.79297,0 0,-0.19141 c -1e-5,-0.18489 -0.0677,-0.32421 -0.20313,-0.41797 -0.13281,-0.0963 -0.32943,-0.14453 -0.58984,-0.14453 -0.27344,0 -0.53907,0.0352 -0.79688,0.10547 -0.25521,0.0677 -0.52213,0.17709 -0.80078,0.32812 l 0,-0.97656 c 0.2526,-0.10416 0.50911,-0.18098 0.76953,-0.23047 0.26042,-0.0495 0.53646,-0.0742 0.82813,-0.0742 0.71093,10e-6 1.20963,0.14454 1.49609,0.4336 0.28906,0.28906 0.43359,0.80599 0.43359,1.55078"
           id="path4052"
           style="font-size:8px;font-variant:normal;font-weight:bold;font-stretch:normal;fill:#000000;font-family:DejaVu Sans Mono;-inkscape-font-specification:DejaVu Sans Mono Bold" />
        <path
           d="m 258.91406,271.85681 0,1.24218 1.4961,0 0,0.87891 -1.4961,0 0,2.07031 c 0,0.19532 0.0469,0.33594 0.14063,0.42188 0.0964,0.0833 0.2552,0.125 0.47656,0.125 l 0.87891,0 0,0.8789 -0.96094,0 c -0.65625,0 -1.10026,-0.10416 -1.33203,-0.3125 -0.23177,-0.21093 -0.34766,-0.60026 -0.34766,-1.16797 l 0,-2.01562 -1.11719,0 0,-0.87891 1.11719,0 0,-1.24218 1.14453,0"
           id="path4054"
           style="font-size:8px;font-variant:normal;font-weight:bold;font-stretch:normal;fill:#000000;font-family:DejaVu Sans Mono;-inkscape-font-specification:DejaVu Sans Mono Bold" />
        <path
           d="m 265.33594,277.25915 c -0.26563,0.10937 -0.53646,0.19141 -0.8125,0.24609 -0.27605,0.0547 -0.56771,0.082 -0.875,0.082 -0.73178,0 -1.29167,-0.19531 -1.67969,-0.58593 -0.38542,-0.39323 -0.57813,-0.95833 -0.57813,-1.69532 0,-0.71353 0.1862,-1.27734 0.5586,-1.6914 0.37239,-0.41406 0.88021,-0.62109 1.52344,-0.6211 0.64843,10e-6 1.15103,0.19272 1.50781,0.57813 0.35937,0.38282 0.53906,0.92318 0.53906,1.62109 l 0,0.46485 -2.96484,0 c 0.003,0.34375 0.10416,0.60026 0.30468,0.76953 0.20052,0.16927 0.5,0.25391 0.89844,0.2539 0.26302,10e-6 0.52213,-0.0378 0.77735,-0.11328 0.2552,-0.0755 0.52213,-0.19531 0.80078,-0.35937 l 0,1.05078 m -0.96875,-2.46094 c -0.005,-0.30208 -0.0833,-0.52994 -0.23438,-0.68359 -0.14844,-0.15625 -0.36849,-0.23437 -0.66015,-0.23438 -0.26303,1e-5 -0.47266,0.0807 -0.62891,0.24219 -0.15625,0.15886 -0.2487,0.38542 -0.27734,0.67969 l 1.80078,-0.004"
           id="path4056"
           style="font-size:8px;font-variant:normal;font-weight:bold;font-stretch:normal;fill:#000000;font-family:DejaVu Sans Mono;-inkscape-font-specification:DejaVu Sans Mono Bold" />
        <path
           d="m 270.33984,274.30602 c -0.125,-0.11458 -0.27214,-0.20051 -0.4414,-0.25781 -0.16667,-0.0573 -0.35027,-0.0859 -0.55078,-0.0859 -0.24219,10e-6 -0.45443,0.043 -0.63672,0.12891 -0.17969,0.0833 -0.31902,0.20573 -0.41797,0.36719 -0.0625,0.099 -0.10677,0.21875 -0.13281,0.35937 -0.0234,0.14063 -0.0352,0.35417 -0.0352,0.64063 l 0,2.01562 -1.14453,0 0,-4.375 1.14453,0 0,0.67969 c 0.11198,-0.25 0.28385,-0.4427 0.51562,-0.57812 0.23177,-0.13802 0.50261,-0.20703 0.8125,-0.20704 0.15625,10e-6 0.30859,0.0195 0.45704,0.0586 0.15103,0.0365 0.29426,0.0911 0.42968,0.16406 l 0,1.08984"
           id="path4058"
           style="font-size:8px;font-variant:normal;font-weight:bold;font-stretch:normal;fill:#000000;font-family:DejaVu Sans Mono;-inkscape-font-specification:DejaVu Sans Mono Bold" />
        <path
           d="m 273.35156,273.53649 c 0.0859,-0.18489 0.19531,-0.32161 0.32813,-0.41015 0.13281,-0.0885 0.29557,-0.13281 0.48828,-0.13282 0.3776,1e-5 0.63802,0.13022 0.78125,0.39063 0.14583,0.26042 0.21874,0.80209 0.21875,1.625 l 0,2.46484 -0.9375,0 0,-2.80859 c 0,-0.32552 -0.0247,-0.54297 -0.0742,-0.65234 -0.0495,-0.10938 -0.13933,-0.16406 -0.26953,-0.16407 -0.13021,10e-6 -0.22136,0.056 -0.27344,0.16797 -0.0521,0.11198 -0.0781,0.32813 -0.0781,0.64844 l 0,2.80859 -0.92579,0 0,-2.80859 c 0,-0.32031 -0.026,-0.53646 -0.0781,-0.64844 -0.0521,-0.11197 -0.14323,-0.16796 -0.27344,-0.16797 -0.13021,10e-6 -0.22005,0.0547 -0.26953,0.16407 -0.0495,0.10937 -0.0742,0.32682 -0.0742,0.65234 l 0,2.80859 -0.9375,0 0,-4.375 0.83203,0 0,0.45313 c 0.0651,-0.17187 0.16927,-0.30729 0.3125,-0.40625 0.14323,-0.10156 0.30339,-0.15234 0.48047,-0.15235 0.17708,1e-5 0.33854,0.0534 0.48438,0.16016 0.14583,0.10417 0.23437,0.23178 0.26562,0.38281"
           id="path4060"
           style="font-size:8px;font-variant:normal;font-weight:bold;font-stretch:normal;fill:#000000;font-family:DejaVu Sans Mono;-inkscape-font-specification:DejaVu Sans Mono Bold" />
        <path
           d="m 276.33203,273.09899 2.26563,0 0,3.4961 1.42187,0 0,0.8789 -3.99219,0 0,-0.8789 1.42578,0 0,-2.61719 -1.12109,0 0,-0.87891 m 1.12109,-2.1289 1.14454,0 0,1.33593 -1.14454,0 0,-1.33593"
           id="path4062"
           style="font-size:8px;font-variant:normal;font-weight:bold;font-stretch:normal;fill:#000000;font-family:DejaVu Sans Mono;-inkscape-font-specification:DejaVu Sans Mono Bold" />
        <path
           d="m 284.46484,274.63415 0,2.83984 -1.13672,0 0,-2.66406 c 0,-0.3177 -0.0456,-0.54427 -0.13671,-0.67969 -0.0885,-0.13801 -0.23438,-0.20702 -0.4375,-0.20703 -0.20574,1e-5 -0.3685,0.0925 -0.48829,0.27735 -0.11718,0.18489 -0.17578,0.4414 -0.17578,0.76953 l 0,2.5039 -1.13672,0 0,-4.375 1.13672,0 0,0.65625 c 0.0807,-0.24218 0.21875,-0.42968 0.41407,-0.5625 0.19531,-0.1328 0.43098,-0.19921 0.70703,-0.19922 0.41406,1e-5 0.72656,0.13803 0.9375,0.41407 0.21093,0.27344 0.3164,0.68229 0.3164,1.22656"
           id="path4064"
           style="font-size:8px;font-variant:normal;font-weight:bold;font-stretch:normal;fill:#000000;font-family:DejaVu Sans Mono;-inkscape-font-specification:DejaVu Sans Mono Bold" />
        <path
           d="m 287.5,273.92321 c -0.27344,1e-5 -0.48828,0.1211 -0.64453,0.36328 -0.15625,0.23959 -0.23438,0.57422 -0.23438,1.00391 0,0.42969 0.0781,0.76563 0.23438,1.00781 0.15625,0.23959 0.37109,0.35938 0.64453,0.35938 0.27604,0 0.49218,-0.11979 0.64844,-0.35938 0.15624,-0.24218 0.23437,-0.57812 0.23437,-1.00781 0,-0.42969 -0.0781,-0.76432 -0.23437,-1.00391 -0.15626,-0.24218 -0.3724,-0.36327 -0.64844,-0.36328 m -2.02344,1.36719 c 0,-0.70573 0.18229,-1.26432 0.54688,-1.67578 0.36718,-0.41406 0.85937,-0.62109 1.47656,-0.6211 0.61979,1e-5 1.11198,0.20704 1.47656,0.6211 0.36719,0.41146 0.55078,0.97005 0.55078,1.67578 0,0.70573 -0.18359,1.26563 -0.55078,1.67969 -0.36458,0.41146 -0.85677,0.61718 -1.47656,0.61718 -0.61719,0 -1.10938,-0.20572 -1.47656,-0.61718 -0.36459,-0.41406 -0.54688,-0.97396 -0.54688,-1.67969"
           id="path4066"
           style="font-size:8px;font-variant:normal;font-weight:bold;font-stretch:normal;fill:#000000;font-family:DejaVu Sans Mono;-inkscape-font-specification:DejaVu Sans Mono Bold" />
        <path
           d="m 290.58594,271.39587 1.14453,0 0,3.1914 1.375,-1.48828 1.38672,0 -1.65625,1.63282 1.75,2.74218 -1.26563,0 -1.19922,-2.04687 -0.39062,0.375 0,1.67187 -1.14453,0 0,-6.07812"
           id="path4068"
           style="font-size:8px;font-variant:normal;font-weight:bold;font-stretch:normal;fill:#000000;font-family:DejaVu Sans Mono;-inkscape-font-specification:DejaVu Sans Mono Bold" />
        <path
           d="m 297.125,273.92321 c -0.27344,1e-5 -0.48828,0.1211 -0.64453,0.36328 -0.15625,0.23959 -0.23438,0.57422 -0.23438,1.00391 0,0.42969 0.0781,0.76563 0.23438,1.00781 0.15625,0.23959 0.37109,0.35938 0.64453,0.35938 0.27604,0 0.49218,-0.11979 0.64844,-0.35938 0.15624,-0.24218 0.23437,-0.57812 0.23437,-1.00781 0,-0.42969 -0.0781,-0.76432 -0.23437,-1.00391 -0.15626,-0.24218 -0.3724,-0.36327 -0.64844,-0.36328 m -2.02344,1.36719 c 0,-0.70573 0.18229,-1.26432 0.54688,-1.67578 0.36718,-0.41406 0.85937,-0.62109 1.47656,-0.6211 0.61979,1e-5 1.11198,0.20704 1.47656,0.6211 0.36719,0.41146 0.55078,0.97005 0.55078,1.67578 0,0.70573 -0.18359,1.26563 -0.55078,1.67969 -0.36458,0.41146 -0.85677,0.61718 -1.47656,0.61718 -0.61719,0 -1.10938,-0.20572 -1.47656,-0.61718 -0.36459,-0.41406 -0.54688,-0.97396 -0.54688,-1.67969"
           id="path4070"
           style="font-size:8px;font-variant:normal;font-weight:bold;font-stretch:normal;fill:#000000;font-family:DejaVu Sans Mono;-inkscape-font-specification:DejaVu Sans Mono Bold" />
        <path
           d="m 301.04297,275.64977 0,-3.375 -1.16016,0 0,-0.8789 2.30469,0 0,4.2539 c 0,0.34376 0.0534,0.58725 0.16016,0.73047 0.10676,0.14323 0.28775,0.21485 0.54296,0.21485 l 0.91407,0 0,0.8789 -1.23438,0 c -0.54427,0 -0.9349,-0.14062 -1.17187,-0.42187 -0.23698,-0.28125 -0.35547,-0.7487 -0.35547,-1.40235"
           id="path4072"
           style="font-size:8px;font-variant:normal;font-weight:bold;font-stretch:normal;fill:#000000;font-family:DejaVu Sans Mono;-inkscape-font-specification:DejaVu Sans Mono Bold" />
        <path
           d="m 308.64844,277.25915 c -0.26563,0.10937 -0.53646,0.19141 -0.8125,0.24609 -0.27605,0.0547 -0.56771,0.082 -0.875,0.082 -0.73178,0 -1.29167,-0.19531 -1.67969,-0.58593 -0.38542,-0.39323 -0.57813,-0.95833 -0.57813,-1.69532 0,-0.71353 0.1862,-1.27734 0.5586,-1.6914 0.37239,-0.41406 0.88021,-0.62109 1.52344,-0.6211 0.64843,10e-6 1.15103,0.19272 1.50781,0.57813 0.35937,0.38282 0.53906,0.92318 0.53906,1.62109 l 0,0.46485 -2.96484,0 c 0.003,0.34375 0.10416,0.60026 0.30468,0.76953 0.20052,0.16927 0.5,0.25391 0.89844,0.2539 0.26302,10e-6 0.52213,-0.0378 0.77735,-0.11328 0.2552,-0.0755 0.52213,-0.19531 0.80078,-0.35937 l 0,1.05078 m -0.96875,-2.46094 c -0.005,-0.30208 -0.0833,-0.52994 -0.23438,-0.68359 -0.14844,-0.15625 -0.36849,-0.23437 -0.66015,-0.23438 -0.26303,1e-5 -0.47266,0.0807 -0.62891,0.24219 -0.15625,0.15886 -0.2487,0.38542 -0.27734,0.67969 l 1.80078,-0.004"
           id="path4074"
           style="font-size:8px;font-variant:normal;font-weight:bold;font-stretch:normal;fill:#000000;font-family:DejaVu Sans Mono;-inkscape-font-specification:DejaVu Sans Mono Bold" />
        <path
           d="m 309.83594,271.39587 1.14453,0 0,3.1914 1.375,-1.48828 1.38672,0 -1.65625,1.63282 1.75,2.74218 -1.26563,0 -1.19922,-2.04687 -0.39062,0.375 0,1.67187 -1.14453,0 0,-6.07812"
           id="path4076"
           style="font-size:8px;font-variant:normal;font-weight:bold;font-stretch:normal;fill:#000000;font-family:DejaVu Sans Mono;-inkscape-font-specification:DejaVu Sans Mono Bold" />
        <path
           d="m 316.66406,271.85681 0,1.24218 1.4961,0 0,0.87891 -1.4961,0 0,2.07031 c 0,0.19532 0.0469,0.33594 0.14063,0.42188 0.0964,0.0833 0.2552,0.125 0.47656,0.125 l 0.87891,0 0,0.8789 -0.96094,0 c -0.65625,0 -1.10026,-0.10416 -1.33203,-0.3125 -0.23177,-0.21093 -0.34766,-0.60026 -0.34766,-1.16797 l 0,-2.01562 -1.11719,0 0,-0.87891 1.11719,0 0,-1.24218 1.14453,0"
           id="path4078"
           style="font-size:8px;font-variant:normal;font-weight:bold;font-stretch:normal;fill:#000000;font-family:DejaVu Sans Mono;-inkscape-font-specification:DejaVu Sans Mono Bold" />
        <path
           d="m 321.1875,273.92321 c -0.27344,1e-5 -0.48828,0.1211 -0.64453,0.36328 -0.15625,0.23959 -0.23438,0.57422 -0.23438,1.00391 0,0.42969 0.0781,0.76563 0.23438,1.00781 0.15625,0.23959 0.37109,0.35938 0.64453,0.35938 0.27604,0 0.49218,-0.11979 0.64844,-0.35938 0.15624,-0.24218 0.23437,-0.57812 0.23437,-1.00781 0,-0.42969 -0.0781,-0.76432 -0.23437,-1.00391 -0.15626,-0.24218 -0.3724,-0.36327 -0.64844,-0.36328 m -2.02344,1.36719 c 0,-0.70573 0.18229,-1.26432 0.54688,-1.67578 0.36718,-0.41406 0.85937,-0.62109 1.47656,-0.6211 0.61979,1e-5 1.11198,0.20704 1.47656,0.6211 0.36719,0.41146 0.55078,0.97005 0.55078,1.67578 0,0.70573 -0.18359,1.26563 -0.55078,1.67969 -0.36458,0.41146 -0.85677,0.61718 -1.47656,0.61718 -0.61719,0 -1.10938,-0.20572 -1.47656,-0.61718 -0.36459,-0.41406 -0.54688,-0.97396 -0.54688,-1.67969"
           id="path4080"
           style="font-size:8px;font-variant:normal;font-weight:bold;font-stretch:normal;fill:#000000;font-family:DejaVu Sans Mono;-inkscape-font-specification:DejaVu Sans Mono Bold" />
      </g>
    </g>
  </g>
</svg>
