<?xml version="1.0" encoding="UTF-8" standalone="no"?>
<!-- Created with Inkscape (http://www.inkscape.org/) -->

<svg
   xmlns:dc="http://purl.org/dc/elements/1.1/"
   xmlns:cc="http://creativecommons.org/ns#"
   xmlns:rdf="http://www.w3.org/1999/02/22-rdf-syntax-ns#"
   xmlns:svg="http://www.w3.org/2000/svg"
   xmlns="http://www.w3.org/2000/svg"
   xmlns:sodipodi="http://sodipodi.sourceforge.net/DTD/sodipodi-0.dtd"
   xmlns:inkscape="http://www.inkscape.org/namespaces/inkscape"
   width="307.0961"
   height="49.742046"
   id="svg2"
   version="1.1"
   inkscape:version="0.48.5 r10040"
   sodipodi:docname="komputekoen.svg">
  <defs
     id="defs4" />
  <sodipodi:namedview
     id="base"
     pagecolor="#ffffff"
     bordercolor="#666666"
     borderopacity="1.0"
     inkscape:pageopacity="0.0"
     inkscape:pageshadow="2"
     inkscape:zoom="1.979899"
     inkscape:cx="258.89593"
     inkscape:cy="-23.326442"
     inkscape:document-units="px"
     inkscape:current-layer="flowRoot2985"
     showgrid="false"
     fit-margin-top="5"
     fit-margin-left="5"
     fit-margin-right="5"
     fit-margin-bottom="5"
     inkscape:window-width="1358"
     inkscape:window-height="651"
     inkscape:window-x="0"
     inkscape:window-y="31"
     inkscape:window-maximized="0" />
  <metadata
     id="metadata7">
    <rdf:RDF>
      <cc:Work
         rdf:about="">
        <dc:format>image/svg+xml</dc:format>
        <dc:type
           rdf:resource="http://purl.org/dc/dcmitype/StillImage" />
        <dc:title></dc:title>
      </cc:Work>
    </rdf:RDF>
  </metadata>
  <g
     inkscape:label="Tavolo 1"
     inkscape:groupmode="layer"
     id="layer1"
     transform="translate(-21.11875,-234.39601)">
    <g
       style="font-size:40px;font-style:normal;font-weight:normal;line-height:125%;letter-spacing:0px;word-spacing:0px;fill:#3ea9c3;fill-opacity:1;stroke:none;font-family:Sans"
       id="flowRoot2985">
      <path
         d="m 51.31875,266.59601 c 0.02664,0.10667 0.03997,0.2 0.04,0.28 -2.6e-5,0.34667 -0.173359,0.65334 -0.52,0.92 -0.346691,0.26667 -0.720024,0.4 -1.12,0.4 l -3.2,0 c -0.72002,0 -1.253353,-0.53333 -1.6,-1.6 l -3.2,-9.6 c -0.346682,-1.06665 -0.880015,-1.59998 -1.6,-1.6 l -2.8,0 c -0.453344,2e-5 -0.840011,0.16002 -1.16,0.48 -0.293343,0.29335 -0.44001,0.66668 -0.44,1.12 l 0,9.6 c -1e-5,0.45334 -0.16001,0.84 -0.48,1.16 -0.293343,0.29334 -0.666676,0.44 -1.12,0.44 l -6.4,0 c -0.453335,0 -0.840001,-0.14666 -1.16,-0.44 -0.293334,-0.32 -0.44,-0.70666 -0.44,-1.16 l 0,-25.6 c 0,-0.4533 0.146666,-0.82664 0.44,-1.12 0.319999,-0.31997 0.706665,-0.47997 1.16,-0.48 l 6.4,0 c 0.453324,3e-5 0.826657,0.16003 1.12,0.48 0.31999,0.29336 0.47999,0.6667 0.48,1.12 l 0,9.6 c -1e-5,0.45335 0.146657,0.84002 0.44,1.16 0.319989,0.29335 0.706656,0.44002 1.16,0.44 l 2.8,0 c 0.719985,2e-5 1.253318,-0.53331 1.6,-1.6 l 3.2,-9.6 c 0.346647,-1.06664 0.87998,-1.59997 1.6,-1.6 l 3.2,0 c 0.399976,3e-5 0.773309,0.13337 1.12,0.4 0.346641,0.2667 0.519974,0.57336 0.52,0.92 -2.6e-5,0.08 -0.01336,0.17336 -0.04,0.28 l -3.76,11.2 c -0.320022,0.96002 -0.466688,1.49335 -0.44,1.6 -0.02669,0.10668 0.119978,0.64002 0.44,1.6 l 3.76,11.2"
         style="font-variant:normal;font-stretch:normal;fill:#3ea9c3;font-family:Black Wolf;-inkscape-font-specification:Black Wolf"
         id="path3845"
         inkscape:connector-curvature="0" />
      <path
         d="m 77.375,264.99601 c -2.4e-5,0.88001 -0.320024,1.64 -0.96,2.28 -0.613356,0.61334 -1.360022,0.92 -2.24,0.92 l -17.2,0 c -0.880003,0 -1.640002,-0.30666 -2.28,-0.92 -0.613334,-0.64 -0.92,-1.39999 -0.92,-2.28 l 0,-16 c 0,-0.87998 0.306666,-1.62664 0.92,-2.24 0.639998,-0.63997 1.399997,-0.95997 2.28,-0.96 l 17.2,0 c 0.879978,3e-5 1.626644,0.32003 2.24,0.96 0.639976,0.61336 0.959976,1.36002 0.96,2.24 l 0,16 m -6.4,-3.2 0,-9.6 c -1.8e-5,-0.87998 -0.320017,-1.62665 -0.96,-2.24 -0.613349,-0.63998 -1.360015,-0.95998 -2.24,-0.96 l -1.2,0 c -0.880012,2e-5 -1.640012,0.32002 -2.28,0.96 -0.613344,0.61335 -0.92001,1.36002 -0.92,2.24 l 0,9.6 c -1e-5,0.88001 0.306656,1.64001 0.92,2.28 0.639988,0.61334 1.399988,0.92001 2.28,0.92 l 1.2,0 c 0.879985,10e-6 1.626651,-0.30666 2.24,-0.92 0.639983,-0.63999 0.959982,-1.39999 0.96,-2.28"
         style="font-variant:normal;font-stretch:normal;fill:#3ea9c3;font-family:Black Wolf;-inkscape-font-specification:Black Wolf"
         id="path3847"
         inkscape:connector-curvature="0" />
      <path
         d="m 111.79063,266.59601 c -4e-5,0.45334 -0.16004,0.84 -0.48,1.16 -0.29337,0.29334 -0.6667,0.44 -1.12001,0.44 l -3.2,0 c -0.45336,0 -0.84002,-0.14666 -1.16,-0.44 -0.29335,-0.32 -0.44002,-0.70666 -0.43999,-1.16 l 0,-16 c -3e-5,-0.45331 -0.16003,-0.82665 -0.48001,-1.12 -0.29335,-0.31998 -0.66669,-0.47998 -1.11999,-0.48 l -1.6,0 c -0.45336,2e-5 -0.84003,0.16002 -1.16,0.48 -0.29336,0.29335 -0.44003,0.66669 -0.44,1.12 l 0,16 c -3e-5,0.45334 -0.16003,0.84 -0.48,1.16 -0.293359,0.29334 -0.666692,0.44 -1.120005,0.44 l -3.2,0 c -0.453349,0 -0.840016,-0.14666 -1.16,-0.44 -0.293348,-0.32 -0.440015,-0.70666 -0.44,-1.16 l 0,-16 c -1.5e-5,-0.45331 -0.160015,-0.82665 -0.48,-1.12 -0.293347,-0.31998 -0.66668,-0.47998 -1.12,-0.48 l -1.6,0 c -0.453344,2e-5 -0.840011,0.16002 -1.16,0.48 -0.293343,0.29335 -0.44001,0.66669 -0.44,1.12 l 0,16 c -1e-5,0.45334 -0.16001,0.84 -0.48,1.16 -0.293343,0.29334 -0.666676,0.44 -1.12,0.44 l -6.4,0 c -0.453335,0 -0.840001,-0.14666 -1.16,-0.44 -0.293334,-0.32 -0.44,-0.70666 -0.44,-1.16 l 0,-19.2 c 0,-0.45331 0.146666,-0.82664 0.44,-1.12 0.319999,-0.31997 0.706665,-0.47997 1.16,-0.48 l 27.200005,0 c 0.87996,3e-5 1.62663,0.32003 2.23999,0.96 0.63997,0.61336 0.95997,1.36002 0.96001,2.24 l 0,17.6"
         style="font-variant:normal;font-stretch:normal;fill:#3ea9c3;font-family:Black Wolf;-inkscape-font-specification:Black Wolf"
         id="path3849"
         inkscape:connector-curvature="0" />
      <path
         d="m 137.76562,264.99601 c -2e-5,0.88001 -0.32002,1.64 -0.96,2.28 -0.61335,0.61334 -1.36002,0.92 -2.24,0.92 l -9.2,0 c -0.45334,0 -0.84001,0.14667 -1.16,0.44 -0.29334,0.32 -0.44001,0.70667 -0.43999,1.16 l 0,3.2 c -2e-5,0.45333 -0.16001,0.82666 -0.48001,1.12 -0.29334,0.32 -0.66667,0.48 -1.11999,0.48 l -6.4,0 c -0.45334,0 -0.84001,-0.16 -1.16,-0.48 -0.29334,-0.29334 -0.44001,-0.66667 -0.44,-1.12 l 0,-25.6 c -10e-6,-0.45331 0.14666,-0.82664 0.44,-1.12 0.31999,-0.31997 0.70666,-0.47997 1.16,-0.48 l 18.79999,0 c 0.87998,3e-5 1.62665,0.32003 2.24,0.96 0.63998,0.61336 0.95998,1.36002 0.96,2.24 l 0,16 m -6.4,-1.6 0,-12.8 c -1e-5,-0.45331 -0.16001,-0.82665 -0.48,-1.12 -0.29335,-0.31998 -0.66668,-0.47998 -1.12,-0.48 l -4.4,0 c -0.45334,2e-5 -0.84001,0.16002 -1.16,0.48 -0.29334,0.29335 -0.44001,0.66669 -0.43999,1.12 l 0,12.8 c -2e-5,0.45334 0.14665,0.84001 0.43999,1.16 0.31999,0.29334 0.70666,0.44001 1.16,0.44 l 4.4,0 c 0.45332,10e-6 0.82665,-0.14666 1.12,-0.44 0.31999,-0.31999 0.47999,-0.70666 0.48,-1.16"
         style="font-variant:normal;font-stretch:normal;fill:#3ea9c3;font-family:Black Wolf;-inkscape-font-specification:Black Wolf"
         id="path3851"
         inkscape:connector-curvature="0" />
      <path
         d="m 163.78125,264.99601 c -2e-5,0.88001 -0.32002,1.64 -0.96,2.28 -0.61336,0.61334 -1.36002,0.92 -2.24,0.92 l -18.8,0 c -0.45333,0 -0.84,-0.14666 -1.16,-0.44 -0.29333,-0.32 -0.44,-0.70666 -0.44,-1.16 l 0,-19.2 c 0,-0.45331 0.14667,-0.82664 0.44,-1.12 0.32,-0.31997 0.70667,-0.47997 1.16,-0.48 l 6.4,0 c 0.45332,3e-5 0.82666,0.16003 1.12,0.48 0.31999,0.29336 0.47999,0.66669 0.48,1.12 l 0,16 c -1e-5,0.45334 0.14666,0.84001 0.44,1.16 0.31999,0.29334 0.70666,0.44001 1.16,0.44 l 4.4,0 c 0.45332,10e-6 0.82665,-0.14666 1.12,-0.44 0.31998,-0.31999 0.47998,-0.70666 0.48,-1.16 l 0,-16 c -2e-5,-0.45331 0.14665,-0.82664 0.44,-1.12 0.31998,-0.31997 0.70665,-0.47997 1.16,-0.48 l 3.2,0 c 0.45331,3e-5 0.82664,0.16003 1.12,0.48 0.31998,0.29336 0.47998,0.66669 0.48,1.12 l 0,17.6"
         style="font-variant:normal;font-stretch:normal;fill:#3ea9c3;font-family:Black Wolf;-inkscape-font-specification:Black Wolf"
         id="path3853"
         inkscape:connector-curvature="0" />
      <path
         d="m 188.19687,247.39601 c -2e-5,0.45336 -0.16002,0.84002 -0.47999,1.16 -0.29336,0.29336 -0.66669,0.44002 -1.12001,0.44 l -4.4,0 c -0.45334,2e-5 -0.84001,0.16002 -1.16,0.48 -0.29334,0.29335 -0.44001,0.66669 -0.44,1.12 l 0,16 c -1e-5,0.45334 -0.16001,0.84 -0.48,1.16 -0.29334,0.29334 -0.66668,0.44 -1.12,0.44 l -6.4,0 c -0.45333,0 -0.84,-0.14666 -1.16,-0.44 -0.29333,-0.32 -0.44,-0.70666 -0.44,-1.16 l 0,-16 c 0,-0.45331 -0.16,-0.82665 -0.48,-1.12 -0.29333,-0.31998 -0.66667,-0.47998 -1.12,-0.48 l -1.6,0 c -0.45333,2e-5 -0.84,-0.14664 -1.16,-0.44 -0.29333,-0.31998 -0.44,-0.70664 -0.44,-1.16 0,-0.45331 0.14667,-0.82664 0.44,-1.12 0.32,-0.31997 0.70667,-0.47997 1.16,-0.48 l 1.6,0.04 c 0.45333,3e-5 0.82667,-0.14664 1.12,-0.44 0.32,-0.31997 0.48,-0.70664 0.48,-1.16 l 0,-3.24 c 0,-0.4533 0.14667,-0.82664 0.44,-1.12 0.32,-0.31997 0.70667,-0.47997 1.16,-0.48 l 6.4,0 c 0.45332,3e-5 0.82666,0.16003 1.12,0.48 0.31999,0.29336 0.47999,0.6667 0.48,1.12 l 0,3.2 c -1e-5,0.45336 0.14666,0.84003 0.44,1.16 0.31999,0.29336 0.70666,0.44003 1.16,0.44 l 4.4,0 c 0.45332,3e-5 0.82665,0.16003 1.12001,0.48 0.31997,0.29336 0.47997,0.66669 0.47999,1.12"
         style="font-variant:normal;font-stretch:normal;fill:#3ea9c3;font-family:Black Wolf;-inkscape-font-specification:Black Wolf"
         id="path3855"
         inkscape:connector-curvature="0" />
      <path
         d="m 214.17187,264.99601 c -2e-5,0.88001 -0.32002,1.64 -0.96,2.28 -0.61335,0.61334 -1.36002,0.92 -2.24,0.92 l -18.8,0 c -0.45333,0 -0.84,-0.14666 -1.16,-0.44 -0.29333,-0.32 -0.44,-0.70666 -0.44,-1.16 l 0,-19.2 c 0,-0.45331 0.14667,-0.82664 0.44,-1.12 0.32,-0.31997 0.70667,-0.47997 1.16,-0.48 l 18.8,0 c 0.87998,3e-5 1.62665,0.32003 2.24,0.96 0.63998,0.61336 0.95998,1.36002 0.96,2.24 l 0,4.8 c -2e-5,0.88002 -0.32002,1.64002 -0.96,2.28 -0.61335,0.61335 -1.36002,0.92001 -2.24,0.92 l -9.2,0 c -0.45334,10e-6 -0.84001,0.16001 -1.16,0.48 -0.29334,0.29335 -0.44001,0.66668 -0.44,1.12 l 0,4.8 c -1e-5,0.45334 0.14666,0.84001 0.44,1.16 0.31999,0.29334 0.70666,0.44001 1.16,0.44 l 4.4,0 c 0.45332,10e-6 0.82665,-0.14666 1.12,-0.44 0.31999,-0.31999 0.47999,-0.70666 0.48,-1.16 l 0,-1.6 c -1e-5,-0.45332 0.14665,-0.82666 0.44,-1.12 0.31999,-0.31999 0.70665,-0.47999 1.16,-0.48 l 3.2,0 c 0.45332,10e-6 0.82665,0.16001 1.12,0.48 0.31998,0.29334 0.47998,0.66668 0.48,1.12 l 0,3.2 m -6.4,-12.8 0,-1.6 c -1e-5,-0.45331 -0.16001,-0.82665 -0.48,-1.12 -0.29335,-0.31998 -0.66668,-0.47998 -1.12,-0.48 l -4.4,0 c -0.45334,2e-5 -0.84001,0.16002 -1.16,0.48 -0.29334,0.29335 -0.44001,0.66669 -0.44,1.12 l 0,1.6 c -1e-5,0.45335 0.14666,0.84002 0.44,1.16 0.31999,0.29335 0.70666,0.44002 1.16,0.44 l 4.4,0 c 0.45332,2e-5 0.82665,-0.14665 1.12,-0.44 0.31999,-0.31998 0.47999,-0.70665 0.48,-1.16"
         style="font-variant:normal;font-stretch:normal;fill:#3ea9c3;font-family:Black Wolf;-inkscape-font-specification:Black Wolf"
         id="path3857"
         inkscape:connector-curvature="0" />
      <path
         d="m 239.1475,266.59601 c 0.0266,0.10667 0.04,0.2 0.04,0.28 -2e-5,0.34667 -0.17336,0.65334 -0.52,0.92 -0.34669,0.26667 -0.72002,0.4 -1.12,0.4 l -3.2,0 c -0.72002,0 -1.25335,-0.53333 -1.6,-1.6 l -2.16,-6.4 c -0.34668,-1.06665 -0.88001,-1.59999 -1.6,-1.6 l -1.2,0 c -0.45334,1e-5 -0.84001,0.16001 -1.16,0.48 -0.29334,0.29335 -0.44001,0.66668 -0.44,1.12 l 0,6.4 c -1e-5,0.45334 -0.16001,0.84 -0.48,1.16 -0.29334,0.29334 -0.66668,0.44 -1.12,0.44 l -6.4,0 c -0.45333,0 -0.84,-0.14666 -1.16,-0.44 -0.29333,-0.32 -0.44,-0.70666 -0.44,-1.16 l 0,-25.6 c 0,-0.4533 0.14667,-0.82664 0.44,-1.12 0.32,-0.31997 0.70667,-0.47997 1.16,-0.48 l 6.4,0 c 0.45332,3e-5 0.82666,0.16003 1.12,0.48 0.31999,0.29336 0.47999,0.6667 0.48,1.12 l 0,12.8 c -1e-5,0.45335 0.14666,0.84002 0.44,1.16 0.31999,0.29335 0.70666,0.44002 1.16,0.44 l 1.2,0 c 0.71999,2e-5 1.25332,-0.53332 1.6,-1.6 l 2.16,-6.4 c 0.34665,-1.06664 0.87998,-1.59997 1.6,-1.6 l 3.2,0 c 0.39998,3e-5 0.77331,0.13336 1.12,0.4 0.34664,0.26669 0.51998,0.57336 0.52,0.92 -2e-5,0.08 -0.0134,0.17336 -0.04,0.28 l -2.72,8 c -0.32002,0.96001 -0.46669,1.49335 -0.44,1.6 -0.0267,0.10668 0.11998,0.64001 0.44,1.6 l 2.72,8"
         style="font-variant:normal;font-stretch:normal;fill:#3ea9c3;font-family:Black Wolf;-inkscape-font-specification:Black Wolf"
         id="path3859"
         inkscape:connector-curvature="0" />
      <path
         d="m 265.1875,264.99601 c -2e-5,0.88001 -0.32002,1.64 -0.96,2.28 -0.61336,0.61334 -1.36002,0.92 -2.24,0.92 l -17.2,0 c -0.88,0 -1.64,-0.30666 -2.28,-0.92 -0.61333,-0.64 -0.92,-1.39999 -0.92,-2.28 l 0,-16 c 0,-0.87998 0.30667,-1.62664 0.92,-2.24 0.64,-0.63997 1.4,-0.95997 2.28,-0.96 l 17.2,0 c 0.87998,3e-5 1.62664,0.32003 2.24,0.96 0.63998,0.61336 0.95998,1.36002 0.96,2.24 l 0,16 m -6.4,-3.2 0,-9.6 c -2e-5,-0.87998 -0.32002,-1.62665 -0.96,-2.24 -0.61335,-0.63998 -1.36002,-0.95998 -2.24,-0.96 l -1.2,0 c -0.88001,2e-5 -1.64001,0.32002 -2.28,0.96 -0.61334,0.61335 -0.92001,1.36002 -0.92,2.24 l 0,9.6 c -1e-5,0.88001 0.30666,1.64001 0.92,2.28 0.63999,0.61334 1.39999,0.92001 2.28,0.92 l 1.2,0 c 0.87998,10e-6 1.62665,-0.30666 2.24,-0.92 0.63998,-0.63999 0.95998,-1.39999 0.96,-2.28"
         style="font-variant:normal;font-stretch:normal;fill:#3ea9c3;font-family:Black Wolf;-inkscape-font-specification:Black Wolf"
         id="path3861"
         inkscape:connector-curvature="0" />
      <g
         transform="translate(-29.294424,-0.50507627)"
         style="font-size:12px;font-family:Sans;fill:#000000"
         id="flowRoot3863">
        <path
           d="m 129.26562,277.47399 -1.15234,0 0,-4.82422 -1.48047,0 0,-1.00781 4.11328,0 0,1.00781 -1.48047,0 0,4.82422"
           style="font-size:8px;font-variant:normal;font-weight:bold;font-stretch:normal;font-family:DejaVu Sans Mono;-inkscape-font-specification:DejaVu Sans Mono Bold;fill:#000000"
           id="path4529" />
        <path
           d="m 135.27734,274.63415 0,2.83984 -1.13672,0 0,-2.66406 c 0,-0.3151 -0.0456,-0.54036 -0.13671,-0.67578 -0.0885,-0.13541 -0.23438,-0.20312 -0.4375,-0.20313 -0.20834,1e-5 -0.3711,0.0925 -0.48829,0.27735 -0.11718,0.18229 -0.17578,0.4362 -0.17578,0.76172 l 0,2.5039 -1.13672,0 0,-6.07812 1.13672,0 0,2.35937 c 0.0807,-0.24218 0.21875,-0.42968 0.41407,-0.5625 0.19531,-0.1328 0.43098,-0.19921 0.70703,-0.19922 0.41406,1e-5 0.72656,0.13803 0.9375,0.41407 0.21093,0.27344 0.3164,0.68229 0.3164,1.22656"
           style="font-size:8px;font-variant:normal;font-weight:bold;font-stretch:normal;font-family:DejaVu Sans Mono;-inkscape-font-specification:DejaVu Sans Mono Bold;fill:#000000"
           id="path4531" />
        <path
           d="m 140.21094,277.25915 c -0.26563,0.10937 -0.53646,0.19141 -0.8125,0.24609 -0.27605,0.0547 -0.56771,0.082 -0.875,0.082 -0.73178,0 -1.29167,-0.19531 -1.67969,-0.58593 -0.38542,-0.39323 -0.57813,-0.95833 -0.57813,-1.69532 0,-0.71353 0.1862,-1.27734 0.5586,-1.6914 0.37239,-0.41406 0.88021,-0.62109 1.52344,-0.6211 0.64843,1e-5 1.15103,0.19272 1.50781,0.57813 0.35937,0.38282 0.53906,0.92318 0.53906,1.62109 l 0,0.46485 -2.96484,0 c 0.003,0.34375 0.10416,0.60026 0.30468,0.76953 0.20052,0.16927 0.5,0.25391 0.89844,0.2539 0.26302,1e-5 0.52213,-0.0378 0.77735,-0.11328 0.2552,-0.0755 0.52213,-0.19531 0.80078,-0.35937 l 0,1.05078 m -0.96875,-2.46094 c -0.005,-0.30208 -0.0833,-0.52994 -0.23438,-0.68359 -0.14844,-0.15625 -0.36849,-0.23437 -0.66015,-0.23438 -0.26303,10e-6 -0.47266,0.0807 -0.62891,0.24219 -0.15625,0.15886 -0.2487,0.38542 -0.27734,0.67969 l 1.80078,-0.004"
           style="font-size:8px;font-variant:normal;font-weight:bold;font-stretch:normal;font-family:DejaVu Sans Mono;-inkscape-font-specification:DejaVu Sans Mono Bold;fill:#000000"
           id="path4533" />
        <path
           d="m 155.57031,275.32165 0,-3.67969 1.15235,0 0,3.96875 c -1e-5,0.29167 0.0742,0.52084 0.22265,0.6875 0.14844,0.16407 0.35417,0.2461 0.61719,0.2461 0.26302,0 0.46875,-0.082 0.61719,-0.2461 0.14843,-0.16666 0.22265,-0.39583 0.22265,-0.6875 l 0,-3.96875 1.15235,0 0,3.67969 c -1e-5,0.79167 -0.15756,1.36719 -0.47266,1.72656 -0.31511,0.35938 -0.82162,0.53906 -1.51953,0.53906 -0.69531,0 -1.20182,-0.17968 -1.51953,-0.53906 -0.31511,-0.35937 -0.47266,-0.93489 -0.47266,-1.72656"
           style="font-size:8px;font-variant:normal;font-weight:bold;font-stretch:normal;font-family:DejaVu Sans Mono;-inkscape-font-specification:DejaVu Sans Mono Bold;fill:#000000"
           id="path4535" />
        <path
           d="m 164.15234,274.63415 0,2.83984 -1.13672,0 0,-2.66406 c 0,-0.3177 -0.0456,-0.54427 -0.13671,-0.67969 -0.0885,-0.13801 -0.23438,-0.20702 -0.4375,-0.20703 -0.20574,1e-5 -0.3685,0.0925 -0.48829,0.27735 -0.11718,0.18489 -0.17578,0.4414 -0.17578,0.76953 l 0,2.5039 -1.13672,0 0,-4.375 1.13672,0 0,0.65625 c 0.0807,-0.24218 0.21875,-0.42968 0.41407,-0.5625 0.19531,-0.1328 0.43098,-0.19921 0.70703,-0.19922 0.41406,1e-5 0.72656,0.13803 0.9375,0.41407 0.21093,0.27344 0.3164,0.68229 0.3164,1.22656"
           style="font-size:8px;font-variant:normal;font-weight:bold;font-stretch:normal;font-family:DejaVu Sans Mono;-inkscape-font-specification:DejaVu Sans Mono Bold;fill:#000000"
           id="path4537" />
        <path
           d="m 165.64453,273.09899 2.26563,0 0,3.4961 1.42187,0 0,0.8789 -3.99219,0 0,-0.8789 1.42578,0 0,-2.61719 -1.12109,0 0,-0.87891 m 1.12109,-2.1289 1.14454,0 0,1.33593 -1.14454,0 0,-1.33593"
           style="font-size:8px;font-variant:normal;font-weight:bold;font-stretch:normal;font-family:DejaVu Sans Mono;-inkscape-font-specification:DejaVu Sans Mono Bold;fill:#000000"
           id="path4539" />
        <path
           d="m 174.09766,273.09899 -1.39063,4.375 -1.41016,0 -1.39062,-4.375 1.16016,0 0.93359,3.41407 0.9375,-3.41407 1.16016,0"
           style="font-size:8px;font-variant:normal;font-weight:bold;font-stretch:normal;font-family:DejaVu Sans Mono;-inkscape-font-specification:DejaVu Sans Mono Bold;fill:#000000"
           id="path4541" />
        <path
           d="m 178.71094,277.25915 c -0.26563,0.10937 -0.53646,0.19141 -0.8125,0.24609 -0.27605,0.0547 -0.56771,0.082 -0.875,0.082 -0.73178,0 -1.29167,-0.19531 -1.67969,-0.58593 -0.38542,-0.39323 -0.57813,-0.95833 -0.57813,-1.69532 0,-0.71353 0.1862,-1.27734 0.5586,-1.6914 0.37239,-0.41406 0.88021,-0.62109 1.52344,-0.6211 0.64843,1e-5 1.15103,0.19272 1.50781,0.57813 0.35937,0.38282 0.53906,0.92318 0.53906,1.62109 l 0,0.46485 -2.96484,0 c 0.003,0.34375 0.10416,0.60026 0.30468,0.76953 0.20052,0.16927 0.5,0.25391 0.89844,0.2539 0.26302,1e-5 0.52213,-0.0378 0.77735,-0.11328 0.2552,-0.0755 0.52213,-0.19531 0.80078,-0.35937 l 0,1.05078 m -0.96875,-2.46094 c -0.005,-0.30208 -0.0833,-0.52994 -0.23438,-0.68359 -0.14844,-0.15625 -0.36849,-0.23437 -0.66015,-0.23438 -0.26303,10e-6 -0.47266,0.0807 -0.62891,0.24219 -0.15625,0.15886 -0.2487,0.38542 -0.27734,0.67969 l 1.80078,-0.004"
           style="font-size:8px;font-variant:normal;font-weight:bold;font-stretch:normal;font-family:DejaVu Sans Mono;-inkscape-font-specification:DejaVu Sans Mono Bold;fill:#000000"
           id="path4543" />
        <path
           d="m 183.71484,274.30602 c -0.125,-0.11458 -0.27214,-0.20051 -0.4414,-0.25781 -0.16667,-0.0573 -0.35027,-0.0859 -0.55078,-0.0859 -0.24219,1e-5 -0.45443,0.043 -0.63672,0.12891 -0.17969,0.0833 -0.31902,0.20573 -0.41797,0.36719 -0.0625,0.099 -0.10677,0.21875 -0.13281,0.35937 -0.0234,0.14063 -0.0352,0.35417 -0.0352,0.64063 l 0,2.01562 -1.14453,0 0,-4.375 1.14453,0 0,0.67969 c 0.11198,-0.25 0.28385,-0.4427 0.51562,-0.57812 0.23177,-0.13802 0.50261,-0.20703 0.8125,-0.20704 0.15625,1e-5 0.30859,0.0195 0.45704,0.0586 0.15103,0.0365 0.29426,0.0911 0.42968,0.16406 l 0,1.08984"
           style="font-size:8px;font-variant:normal;font-weight:bold;font-stretch:normal;font-family:DejaVu Sans Mono;-inkscape-font-specification:DejaVu Sans Mono Bold;fill:#000000"
           id="path4545" />
        <path
           d="m 187.90234,273.23571 0,1 c -0.21094,-0.13541 -0.43099,-0.23697 -0.66015,-0.30469 -0.22657,-0.0703 -0.45443,-0.10546 -0.6836,-0.10546 -0.25521,0 -0.44791,0.0378 -0.57812,0.11328 -0.13021,0.0729 -0.19532,0.18229 -0.19531,0.32812 -1e-5,0.20834 0.27864,0.37761 0.83593,0.50781 l 0.043,0.0117 0.32813,0.0781 c 0.41666,0.099 0.72135,0.25912 0.91406,0.48047 0.19531,0.21875 0.29296,0.51562 0.29297,0.89062 -1e-5,0.45052 -0.14844,0.78906 -0.44531,1.01563 -0.29428,0.22396 -0.73829,0.33593 -1.33204,0.33593 -0.26302,0 -0.53255,-0.0234 -0.80859,-0.0703 -0.27604,-0.0443 -0.55599,-0.11198 -0.83984,-0.20312 l 0,-1 c 0.2526,0.14323 0.50911,0.2526 0.76953,0.32812 0.26302,0.0755 0.51692,0.11328 0.76172,0.11328 0.26822,0 0.47135,-0.0391 0.60937,-0.11718 0.13802,-0.0781 0.20703,-0.19141 0.20703,-0.33985 0,-0.14583 -0.0495,-0.25781 -0.14843,-0.33594 -0.0964,-0.0781 -0.32813,-0.16145 -0.69532,-0.25 l -0.3164,-0.0703 c -0.4375,-0.099 -0.75651,-0.2539 -0.95703,-0.46484 -0.20053,-0.21094 -0.30079,-0.49349 -0.30079,-0.84766 0,-0.42187 0.15235,-0.74999 0.45704,-0.98437 0.30468,-0.23437 0.73307,-0.35156 1.28515,-0.35157 0.2474,1e-5 0.49349,0.0208 0.73828,0.0625 0.2474,0.0391 0.48698,0.099 0.71875,0.17969"
           style="font-size:8px;font-variant:normal;font-weight:bold;font-stretch:normal;font-family:DejaVu Sans Mono;-inkscape-font-specification:DejaVu Sans Mono Bold;fill:#000000"
           id="path4547" />
        <path
           d="m 191.57812,275.41931 c -0.42708,0 -0.72526,0.0547 -0.89453,0.16406 -0.16927,0.10938 -0.2539,0.29687 -0.2539,0.5625 0,0.19792 0.0586,0.35547 0.17578,0.47265 0.11718,0.11719 0.27604,0.17579 0.47656,0.17579 0.30208,0 0.53646,-0.11328 0.70313,-0.33985 0.16666,-0.22916 0.24999,-0.54817 0.25,-0.95703 l 0,-0.0781 -0.45704,0 m 1.59375,-0.44141 0,2.49609 -1.13671,0 0,-0.48828 c -0.13803,0.19271 -0.31511,0.34115 -0.53125,0.44531 -0.21615,0.10417 -0.45443,0.15625 -0.71485,0.15625 -0.49739,0 -0.88542,-0.13151 -1.16406,-0.39453 -0.27604,-0.26302 -0.41406,-0.6302 -0.41406,-1.10156 0,-0.51041 0.16536,-0.88672 0.49609,-1.12891 0.33073,-0.24478 0.84245,-0.36718 1.53516,-0.36718 l 0.79297,0 0,-0.19141 c -1e-5,-0.18489 -0.0677,-0.32421 -0.20313,-0.41797 -0.13281,-0.0963 -0.32943,-0.14453 -0.58984,-0.14453 -0.27344,0 -0.53907,0.0352 -0.79688,0.10547 -0.25521,0.0677 -0.52213,0.17709 -0.80078,0.32812 l 0,-0.97656 c 0.2526,-0.10416 0.50911,-0.18098 0.76953,-0.23047 0.26042,-0.0495 0.53646,-0.0742 0.82813,-0.0742 0.71093,1e-5 1.20963,0.14454 1.49609,0.4336 0.28906,0.28906 0.43359,0.80599 0.43359,1.55078"
           style="font-size:8px;font-variant:normal;font-weight:bold;font-stretch:normal;font-family:DejaVu Sans Mono;-inkscape-font-specification:DejaVu Sans Mono Bold;fill:#000000"
           id="path4549" />
        <path
           d="m 195.16797,275.64977 0,-3.375 -1.16016,0 0,-0.8789 2.30469,0 0,4.2539 c 0,0.34376 0.0534,0.58725 0.16016,0.73047 0.10676,0.14323 0.28775,0.21485 0.54296,0.21485 l 0.91407,0 0,0.8789 -1.23438,0 c -0.54427,0 -0.9349,-0.14062 -1.17187,-0.42187 -0.23698,-0.28125 -0.35547,-0.7487 -0.35547,-1.40235"
           style="font-size:8px;font-variant:normal;font-weight:bold;font-stretch:normal;font-family:DejaVu Sans Mono;-inkscape-font-specification:DejaVu Sans Mono Bold;fill:#000000"
           id="path4551" />
        <path
           d="m 207.50391,277.30602 c -0.1823,0.0937 -0.37371,0.16407 -0.57422,0.21094 -0.20053,0.0469 -0.41146,0.0703 -0.63282,0.0703 -0.78646,0 -1.38672,-0.25911 -1.80078,-0.77734 -0.41406,-0.51823 -0.62109,-1.26692 -0.62109,-2.24609 0,-0.98177 0.20703,-1.73177 0.62109,-2.25 0.41406,-0.51823 1.01432,-0.77734 1.80078,-0.77735 0.22136,10e-6 0.4336,0.0234 0.63672,0.0703 0.20312,0.0469 0.39323,0.11719 0.57032,0.21093 l 0,1.28125 c -0.19792,-0.18228 -0.39063,-0.3151 -0.57813,-0.39843 -0.1849,-0.0859 -0.3763,-0.12891 -0.57422,-0.12891 -0.42188,0 -0.74089,0.16797 -0.95703,0.50391 -0.21354,0.33333 -0.32031,0.82943 -0.32031,1.48828 0,0.65625 0.10677,1.15234 0.32031,1.48828 0.21614,0.33333 0.53515,0.5 0.95703,0.5 0.19792,0 0.38932,-0.0417 0.57422,-0.125 0.1875,-0.0859 0.38021,-0.22005 0.57813,-0.40235 l 0,1.28125"
           style="font-size:8px;font-variant:normal;font-weight:bold;font-stretch:normal;font-family:DejaVu Sans Mono;-inkscape-font-specification:DejaVu Sans Mono Bold;fill:#000000"
           id="path4553" />
        <path
           d="m 210.5,273.92321 c -0.27344,1e-5 -0.48828,0.1211 -0.64453,0.36328 -0.15625,0.23959 -0.23438,0.57422 -0.23438,1.00391 0,0.42969 0.0781,0.76563 0.23438,1.00781 0.15625,0.23959 0.37109,0.35938 0.64453,0.35938 0.27604,0 0.49218,-0.11979 0.64844,-0.35938 0.15624,-0.24218 0.23437,-0.57812 0.23437,-1.00781 0,-0.42969 -0.0781,-0.76432 -0.23437,-1.00391 -0.15626,-0.24218 -0.3724,-0.36327 -0.64844,-0.36328 m -2.02344,1.36719 c 0,-0.70573 0.18229,-1.26432 0.54688,-1.67578 0.36718,-0.41406 0.85937,-0.62109 1.47656,-0.6211 0.61979,1e-5 1.11198,0.20704 1.47656,0.6211 0.36719,0.41146 0.55078,0.97005 0.55078,1.67578 0,0.70573 -0.18359,1.26563 -0.55078,1.67969 -0.36458,0.41146 -0.85677,0.61718 -1.47656,0.61718 -0.61719,0 -1.10938,-0.20572 -1.47656,-0.61718 -0.36459,-0.41406 -0.54688,-0.97396 -0.54688,-1.67969"
           style="font-size:8px;font-variant:normal;font-weight:bold;font-stretch:normal;font-family:DejaVu Sans Mono;-inkscape-font-specification:DejaVu Sans Mono Bold;fill:#000000"
           id="path4555" />
        <path
           d="m 215.60156,273.53649 c 0.0859,-0.18489 0.19531,-0.32161 0.32813,-0.41015 0.13281,-0.0885 0.29557,-0.13281 0.48828,-0.13282 0.3776,1e-5 0.63802,0.13022 0.78125,0.39063 0.14583,0.26042 0.21874,0.80209 0.21875,1.625 l 0,2.46484 -0.9375,0 0,-2.80859 c 0,-0.32552 -0.0247,-0.54297 -0.0742,-0.65234 -0.0495,-0.10938 -0.13933,-0.16406 -0.26953,-0.16407 -0.13021,10e-6 -0.22136,0.056 -0.27344,0.16797 -0.0521,0.11198 -0.0781,0.32813 -0.0781,0.64844 l 0,2.80859 -0.92579,0 0,-2.80859 c 0,-0.32031 -0.026,-0.53646 -0.0781,-0.64844 -0.0521,-0.11197 -0.14323,-0.16796 -0.27344,-0.16797 -0.13021,10e-6 -0.22005,0.0547 -0.26953,0.16407 -0.0495,0.10937 -0.0742,0.32682 -0.0742,0.65234 l 0,2.80859 -0.9375,0 0,-4.375 0.83203,0 0,0.45313 c 0.0651,-0.17187 0.16927,-0.30729 0.3125,-0.40625 0.14323,-0.10156 0.30339,-0.15234 0.48047,-0.15235 0.17708,1e-5 0.33854,0.0534 0.48438,0.16016 0.14583,0.10417 0.23437,0.23178 0.26562,0.38281"
           style="font-size:8px;font-variant:normal;font-weight:bold;font-stretch:normal;font-family:DejaVu Sans Mono;-inkscape-font-specification:DejaVu Sans Mono Bold;fill:#000000"
           id="path4557" />
        <path
           d="m 219.44531,276.85681 0,2.28125 -1.14062,0 0,-6.03907 1.14062,0 0,0.65625 c 0.11979,-0.2526 0.27734,-0.4427 0.47266,-0.57031 0.19531,-0.1276 0.42448,-0.1914 0.6875,-0.19141 0.5,1e-5 0.88802,0.20053 1.16406,0.60157 0.27604,0.40104 0.41406,0.96615 0.41406,1.69531 0,0.73958 -0.14063,1.30729 -0.42187,1.70312 -0.27865,0.39584 -0.67709,0.59375 -1.19531,0.59375 -0.23438,0 -0.44532,-0.0599 -0.63282,-0.17968 -0.18489,-0.1224 -0.34765,-0.30599 -0.48828,-0.55078 m 1.59375,-1.57422 c 0,-0.42188 -0.0703,-0.7526 -0.21094,-0.99219 -0.14062,-0.23958 -0.33463,-0.35937 -0.58203,-0.35938 -0.24739,1e-5 -0.44271,0.1198 -0.58593,0.35938 -0.14323,0.23959 -0.21485,0.57031 -0.21485,0.99219 0,0.42187 0.0716,0.7526 0.21485,0.99218 0.14322,0.23959 0.33854,0.35938 0.58593,0.35938 0.2474,0 0.44141,-0.11979 0.58203,-0.35938 0.14063,-0.23958 0.21094,-0.57031 0.21094,-0.99218"
           style="font-size:8px;font-variant:normal;font-weight:bold;font-stretch:normal;font-family:DejaVu Sans Mono;-inkscape-font-specification:DejaVu Sans Mono Bold;fill:#000000"
           id="path4559" />
        <path
           d="m 223.15625,275.94665 0,-2.84766 1.14453,0 0,2.67188 c 0,0.3151 0.0443,0.54036 0.13281,0.67578 0.0885,0.13542 0.23568,0.20313 0.44141,0.20312 0.20573,1e-5 0.36588,-0.0911 0.48047,-0.27343 0.11718,-0.18229 0.17578,-0.4375 0.17578,-0.76563 l 0,-2.51172 1.14453,0 0,4.375 -1.14453,0 0,-0.64843 c -0.0807,0.24218 -0.21875,0.42968 -0.41406,0.5625 -0.19271,0.13281 -0.42579,0.19921 -0.69922,0.19921 -0.41667,0 -0.73177,-0.13802 -0.94531,-0.41406 -0.21094,-0.27604 -0.31641,-0.68489 -0.31641,-1.22656"
           style="font-size:8px;font-variant:normal;font-weight:bold;font-stretch:normal;font-family:DejaVu Sans Mono;-inkscape-font-specification:DejaVu Sans Mono Bold;fill:#000000"
           id="path4561" />
        <path
           d="m 230.03906,271.85681 0,1.24218 1.4961,0 0,0.87891 -1.4961,0 0,2.07031 c 0,0.19532 0.0469,0.33594 0.14063,0.42188 0.0964,0.0833 0.2552,0.125 0.47656,0.125 l 0.87891,0 0,0.8789 -0.96094,0 c -0.65625,0 -1.10026,-0.10416 -1.33203,-0.3125 -0.23178,-0.21093 -0.34766,-0.60026 -0.34766,-1.16797 l 0,-2.01562 -1.11719,0 0,-0.87891 1.11719,0 0,-1.24218 1.14453,0"
           style="font-size:8px;font-variant:normal;font-weight:bold;font-stretch:normal;font-family:DejaVu Sans Mono;-inkscape-font-specification:DejaVu Sans Mono Bold;fill:#000000"
           id="path4563" />
        <path
           d="m 236.46094,277.25915 c -0.26563,0.10937 -0.53646,0.19141 -0.8125,0.24609 -0.27605,0.0547 -0.56771,0.082 -0.875,0.082 -0.73178,0 -1.29167,-0.19531 -1.67969,-0.58593 -0.38542,-0.39323 -0.57813,-0.95833 -0.57813,-1.69532 0,-0.71353 0.1862,-1.27734 0.5586,-1.6914 0.37239,-0.41406 0.88021,-0.62109 1.52344,-0.6211 0.64843,1e-5 1.15103,0.19272 1.50781,0.57813 0.35937,0.38282 0.53906,0.92318 0.53906,1.62109 l 0,0.46485 -2.96484,0 c 0.003,0.34375 0.10416,0.60026 0.30468,0.76953 0.20052,0.16927 0.5,0.25391 0.89844,0.2539 0.26302,1e-5 0.52213,-0.0378 0.77735,-0.11328 0.2552,-0.0755 0.52213,-0.19531 0.80078,-0.35937 l 0,1.05078 m -0.96875,-2.46094 c -0.005,-0.30208 -0.0833,-0.52994 -0.23438,-0.68359 -0.14844,-0.15625 -0.36849,-0.23437 -0.66015,-0.23438 -0.26303,10e-6 -0.47266,0.0807 -0.62891,0.24219 -0.15625,0.15886 -0.2487,0.38542 -0.27734,0.67969 l 1.80078,-0.004"
           style="font-size:8px;font-variant:normal;font-weight:bold;font-stretch:normal;font-family:DejaVu Sans Mono;-inkscape-font-specification:DejaVu Sans Mono Bold;fill:#000000"
           id="path4565" />
        <path
           d="m 241.46484,274.30602 c -0.125,-0.11458 -0.27214,-0.20051 -0.4414,-0.25781 -0.16667,-0.0573 -0.35027,-0.0859 -0.55078,-0.0859 -0.24219,1e-5 -0.45443,0.043 -0.63672,0.12891 -0.17969,0.0833 -0.31902,0.20573 -0.41797,0.36719 -0.0625,0.099 -0.10677,0.21875 -0.13281,0.35937 -0.0234,0.14063 -0.0352,0.35417 -0.0352,0.64063 l 0,2.01562 -1.14453,0 0,-4.375 1.14453,0 0,0.67969 c 0.11198,-0.25 0.28385,-0.4427 0.51562,-0.57812 0.23177,-0.13802 0.50261,-0.20703 0.8125,-0.20704 0.15625,1e-5 0.30859,0.0195 0.45704,0.0586 0.15103,0.0365 0.29426,0.0911 0.42968,0.16406 l 0,1.08984"
           style="font-size:8px;font-variant:normal;font-weight:bold;font-stretch:normal;font-family:DejaVu Sans Mono;-inkscape-font-specification:DejaVu Sans Mono Bold;fill:#000000"
           id="path4567" />
        <path
           d="m 249.57812,277.47399 -1.15234,0 0,-4.82422 -1.48047,0 0,-1.00781 4.11328,0 0,1.00781 -1.48047,0 0,4.82422"
           style="font-size:8px;font-variant:normal;font-weight:bold;font-stretch:normal;font-family:DejaVu Sans Mono;-inkscape-font-specification:DejaVu Sans Mono Bold;fill:#000000"
           id="path4569" />
        <path
           d="m 255.71094,277.25915 c -0.26563,0.10937 -0.53646,0.19141 -0.8125,0.24609 -0.27605,0.0547 -0.56771,0.082 -0.875,0.082 -0.73178,0 -1.29167,-0.19531 -1.67969,-0.58593 -0.38542,-0.39323 -0.57813,-0.95833 -0.57813,-1.69532 0,-0.71353 0.1862,-1.27734 0.5586,-1.6914 0.37239,-0.41406 0.88021,-0.62109 1.52344,-0.6211 0.64843,1e-5 1.15103,0.19272 1.50781,0.57813 0.35937,0.38282 0.53906,0.92318 0.53906,1.62109 l 0,0.46485 -2.96484,0 c 0.003,0.34375 0.10416,0.60026 0.30468,0.76953 0.20052,0.16927 0.5,0.25391 0.89844,0.2539 0.26302,1e-5 0.52213,-0.0378 0.77735,-0.11328 0.2552,-0.0755 0.52213,-0.19531 0.80078,-0.35937 l 0,1.05078 m -0.96875,-2.46094 c -0.005,-0.30208 -0.0833,-0.52994 -0.23438,-0.68359 -0.14844,-0.15625 -0.36849,-0.23437 -0.66015,-0.23438 -0.26303,10e-6 -0.47266,0.0807 -0.62891,0.24219 -0.15625,0.15886 -0.2487,0.38542 -0.27734,0.67969 l 1.80078,-0.004"
           style="font-size:8px;font-variant:normal;font-weight:bold;font-stretch:normal;font-family:DejaVu Sans Mono;-inkscape-font-specification:DejaVu Sans Mono Bold;fill:#000000"
           id="path4571" />
        <path
           d="m 260.71484,274.30602 c -0.125,-0.11458 -0.27214,-0.20051 -0.4414,-0.25781 -0.16667,-0.0573 -0.35027,-0.0859 -0.55078,-0.0859 -0.24219,1e-5 -0.45443,0.043 -0.63672,0.12891 -0.17969,0.0833 -0.31902,0.20573 -0.41797,0.36719 -0.0625,0.099 -0.10677,0.21875 -0.13281,0.35937 -0.0234,0.14063 -0.0352,0.35417 -0.0352,0.64063 l 0,2.01562 -1.14453,0 0,-4.375 1.14453,0 0,0.67969 c 0.11198,-0.25 0.28385,-0.4427 0.51562,-0.57812 0.23177,-0.13802 0.50261,-0.20703 0.8125,-0.20704 0.15625,1e-5 0.30859,0.0195 0.45704,0.0586 0.15103,0.0365 0.29426,0.0911 0.42968,0.16406 l 0,1.08984"
           style="font-size:8px;font-variant:normal;font-weight:bold;font-stretch:normal;font-family:DejaVu Sans Mono;-inkscape-font-specification:DejaVu Sans Mono Bold;fill:#000000"
           id="path4573" />
        <path
           d="m 263.72656,273.53649 c 0.0859,-0.18489 0.19531,-0.32161 0.32813,-0.41015 0.13281,-0.0885 0.29557,-0.13281 0.48828,-0.13282 0.3776,1e-5 0.63802,0.13022 0.78125,0.39063 0.14583,0.26042 0.21874,0.80209 0.21875,1.625 l 0,2.46484 -0.9375,0 0,-2.80859 c 0,-0.32552 -0.0247,-0.54297 -0.0742,-0.65234 -0.0495,-0.10938 -0.13933,-0.16406 -0.26953,-0.16407 -0.13021,10e-6 -0.22136,0.056 -0.27344,0.16797 -0.0521,0.11198 -0.0781,0.32813 -0.0781,0.64844 l 0,2.80859 -0.92579,0 0,-2.80859 c 0,-0.32031 -0.026,-0.53646 -0.0781,-0.64844 -0.0521,-0.11197 -0.14323,-0.16796 -0.27344,-0.16797 -0.13021,10e-6 -0.22005,0.0547 -0.26953,0.16407 -0.0495,0.10937 -0.0742,0.32682 -0.0742,0.65234 l 0,2.80859 -0.9375,0 0,-4.375 0.83203,0 0,0.45313 c 0.0651,-0.17187 0.16927,-0.30729 0.3125,-0.40625 0.14323,-0.10156 0.30339,-0.15234 0.48047,-0.15235 0.17708,1e-5 0.33854,0.0534 0.48438,0.16016 0.14583,0.10417 0.23437,0.23178 0.26562,0.38281"
           style="font-size:8px;font-variant:normal;font-weight:bold;font-stretch:normal;font-family:DejaVu Sans Mono;-inkscape-font-specification:DejaVu Sans Mono Bold;fill:#000000"
           id="path4575" />
        <path
           d="m 266.70703,273.09899 2.26563,0 0,3.4961 1.42187,0 0,0.8789 -3.99219,0 0,-0.8789 1.42578,0 0,-2.61719 -1.12109,0 0,-0.87891 m 1.12109,-2.1289 1.14454,0 0,1.33593 -1.14454,0 0,-1.33593"
           style="font-size:8px;font-variant:normal;font-weight:bold;font-stretch:normal;font-family:DejaVu Sans Mono;-inkscape-font-specification:DejaVu Sans Mono Bold;fill:#000000"
           id="path4577" />
        <path
           d="m 274.83984,274.63415 0,2.83984 -1.13672,0 0,-2.66406 c 0,-0.3177 -0.0456,-0.54427 -0.13671,-0.67969 -0.0885,-0.13801 -0.23438,-0.20702 -0.4375,-0.20703 -0.20574,1e-5 -0.3685,0.0925 -0.48829,0.27735 -0.11718,0.18489 -0.17578,0.4414 -0.17578,0.76953 l 0,2.5039 -1.13672,0 0,-4.375 1.13672,0 0,0.65625 c 0.0807,-0.24218 0.21875,-0.42968 0.41407,-0.5625 0.19531,-0.1328 0.43098,-0.19921 0.70703,-0.19922 0.41406,1e-5 0.72656,0.13803 0.9375,0.41407 0.21093,0.27344 0.3164,0.68229 0.3164,1.22656"
           style="font-size:8px;font-variant:normal;font-weight:bold;font-stretch:normal;font-family:DejaVu Sans Mono;-inkscape-font-specification:DejaVu Sans Mono Bold;fill:#000000"
           id="path4579" />
        <path
           d="m 277.875,273.92321 c -0.27344,1e-5 -0.48828,0.1211 -0.64453,0.36328 -0.15625,0.23959 -0.23438,0.57422 -0.23438,1.00391 0,0.42969 0.0781,0.76563 0.23438,1.00781 0.15625,0.23959 0.37109,0.35938 0.64453,0.35938 0.27604,0 0.49218,-0.11979 0.64844,-0.35938 0.15624,-0.24218 0.23437,-0.57812 0.23437,-1.00781 0,-0.42969 -0.0781,-0.76432 -0.23437,-1.00391 -0.15626,-0.24218 -0.3724,-0.36327 -0.64844,-0.36328 m -2.02344,1.36719 c 0,-0.70573 0.18229,-1.26432 0.54688,-1.67578 0.36718,-0.41406 0.85937,-0.62109 1.47656,-0.6211 0.61979,1e-5 1.11198,0.20704 1.47656,0.6211 0.36719,0.41146 0.55078,0.97005 0.55078,1.67578 0,0.70573 -0.18359,1.26563 -0.55078,1.67969 -0.36458,0.41146 -0.85677,0.61718 -1.47656,0.61718 -0.61719,0 -1.10938,-0.20572 -1.47656,-0.61718 -0.36459,-0.41406 -0.54688,-0.97396 -0.54688,-1.67969"
           style="font-size:8px;font-variant:normal;font-weight:bold;font-stretch:normal;font-family:DejaVu Sans Mono;-inkscape-font-specification:DejaVu Sans Mono Bold;fill:#000000"
           id="path4581" />
        <path
           d="m 281.79297,275.64977 0,-3.375 -1.16016,0 0,-0.8789 2.30469,0 0,4.2539 c 0,0.34376 0.0534,0.58725 0.16016,0.73047 0.10676,0.14323 0.28775,0.21485 0.54296,0.21485 l 0.91407,0 0,0.8789 -1.23438,0 c -0.54427,0 -0.9349,-0.14062 -1.17187,-0.42187 -0.23698,-0.28125 -0.35547,-0.7487 -0.35547,-1.40235"
           style="font-size:8px;font-variant:normal;font-weight:bold;font-stretch:normal;font-family:DejaVu Sans Mono;-inkscape-font-specification:DejaVu Sans Mono Bold;fill:#000000"
           id="path4583" />
        <path
           d="m 287.5,273.92321 c -0.27344,1e-5 -0.48828,0.1211 -0.64453,0.36328 -0.15625,0.23959 -0.23438,0.57422 -0.23438,1.00391 0,0.42969 0.0781,0.76563 0.23438,1.00781 0.15625,0.23959 0.37109,0.35938 0.64453,0.35938 0.27604,0 0.49218,-0.11979 0.64844,-0.35938 0.15624,-0.24218 0.23437,-0.57812 0.23437,-1.00781 0,-0.42969 -0.0781,-0.76432 -0.23437,-1.00391 -0.15626,-0.24218 -0.3724,-0.36327 -0.64844,-0.36328 m -2.02344,1.36719 c 0,-0.70573 0.18229,-1.26432 0.54688,-1.67578 0.36718,-0.41406 0.85937,-0.62109 1.47656,-0.6211 0.61979,1e-5 1.11198,0.20704 1.47656,0.6211 0.36719,0.41146 0.55078,0.97005 0.55078,1.67578 0,0.70573 -0.18359,1.26563 -0.55078,1.67969 -0.36458,0.41146 -0.85677,0.61718 -1.47656,0.61718 -0.61719,0 -1.10938,-0.20572 -1.47656,-0.61718 -0.36459,-0.41406 -0.54688,-0.97396 -0.54688,-1.67969"
           style="font-size:8px;font-variant:normal;font-weight:bold;font-stretch:normal;font-family:DejaVu Sans Mono;-inkscape-font-specification:DejaVu Sans Mono Bold;fill:#000000"
           id="path4585" />
        <path
           d="m 293.04297,275.21618 c 0,-0.39062 -0.0742,-0.70312 -0.22266,-0.9375 -0.14844,-0.23697 -0.34375,-0.35546 -0.58594,-0.35547 -0.23958,1e-5 -0.43359,0.11719 -0.58203,0.35156 -0.14583,0.23438 -0.21875,0.54818 -0.21875,0.94141 0,0.39584 0.0729,0.71094 0.21875,0.94531 0.14844,0.23438 0.34245,0.35157 0.58203,0.35157 0.24219,0 0.4375,-0.11719 0.58594,-0.35157 0.14844,-0.23697 0.22266,-0.55208 0.22266,-0.94531 m 1.14453,1.92969 c 0,0.70052 -0.15886,1.20573 -0.47656,1.51562 -0.31511,0.3125 -0.82813,0.46875 -1.53907,0.46875 -0.23958,0 -0.47656,-0.0182 -0.71093,-0.0547 -0.23438,-0.0339 -0.47266,-0.0872 -0.71485,-0.16016 l 0,-1.05078 c 0.21615,0.11979 0.4362,0.20833 0.66016,0.26562 0.22396,0.0573 0.45443,0.0859 0.69141,0.0859 0.32291,0 0.56119,-0.0768 0.71484,-0.23047 0.15364,-0.15104 0.23047,-0.38802 0.23047,-0.71094 l 0,-0.47265 c -0.11198,0.20833 -0.26042,0.36328 -0.44531,0.46484 -0.1849,0.10156 -0.41016,0.15235 -0.67579,0.15235 -0.5,0 -0.89713,-0.19532 -1.1914,-0.58594 -0.29427,-0.39063 -0.44141,-0.92057 -0.44141,-1.58985 0,-0.6927 0.14714,-1.24218 0.44141,-1.64843 0.29427,-0.40625 0.6888,-0.60937 1.18359,-0.60938 0.25,1e-5 0.47266,0.0586 0.66797,0.17578 0.19531,0.11719 0.34896,0.28256 0.46094,0.4961 l 0,-0.5586 1.14453,0 0,4.04688"
           style="font-size:8px;font-variant:normal;font-weight:bold;font-stretch:normal;font-family:DejaVu Sans Mono;-inkscape-font-specification:DejaVu Sans Mono Bold;fill:#000000"
           id="path4587" />
        <path
           d="m 297.49609,277.94665 c -0.15364,0.41146 -0.33854,0.71094 -0.55468,0.89844 -0.21355,0.1901 -0.47396,0.28515 -0.78125,0.28515 l -0.94532,0 0,-0.87109 0.46485,0 c 0.23437,0 0.40625,-0.0404 0.51562,-0.12109 0.10938,-0.0781 0.22005,-0.26172 0.33203,-0.55079 l 0.0859,-0.23437 -1.66406,-4.25391 1.20312,0 1,2.83985 0.95703,-2.83985 1.20313,0 -1.81641,4.84766"
           style="font-size:8px;font-variant:normal;font-weight:bold;font-stretch:normal;font-family:DejaVu Sans Mono;-inkscape-font-specification:DejaVu Sans Mono Bold;fill:#000000"
           id="path4589" />
        <path
           d="m 308.56641,277.30602 c -0.1823,0.0937 -0.37371,0.16407 -0.57422,0.21094 -0.20053,0.0469 -0.41146,0.0703 -0.63282,0.0703 -0.78646,0 -1.38672,-0.25911 -1.80078,-0.77734 -0.41406,-0.51823 -0.62109,-1.26692 -0.62109,-2.24609 0,-0.98177 0.20703,-1.73177 0.62109,-2.25 0.41406,-0.51823 1.01432,-0.77734 1.80078,-0.77735 0.22136,10e-6 0.4336,0.0234 0.63672,0.0703 0.20312,0.0469 0.39323,0.11719 0.57032,0.21093 l 0,1.28125 c -0.19792,-0.18228 -0.39063,-0.3151 -0.57813,-0.39843 -0.1849,-0.0859 -0.3763,-0.12891 -0.57422,-0.12891 -0.42188,0 -0.74089,0.16797 -0.95703,0.50391 -0.21354,0.33333 -0.32031,0.82943 -0.32031,1.48828 0,0.65625 0.10677,1.15234 0.32031,1.48828 0.21614,0.33333 0.53515,0.5 0.95703,0.5 0.19792,0 0.38932,-0.0417 0.57422,-0.125 0.1875,-0.0859 0.38021,-0.22005 0.57813,-0.40235 l 0,1.28125"
           style="font-size:8px;font-variant:normal;font-weight:bold;font-stretch:normal;font-family:DejaVu Sans Mono;-inkscape-font-specification:DejaVu Sans Mono Bold;fill:#000000"
           id="path4591" />
        <path
           d="m 311.5625,273.92321 c -0.27344,1e-5 -0.48828,0.1211 -0.64453,0.36328 -0.15625,0.23959 -0.23438,0.57422 -0.23438,1.00391 0,0.42969 0.0781,0.76563 0.23438,1.00781 0.15625,0.23959 0.37109,0.35938 0.64453,0.35938 0.27604,0 0.49218,-0.11979 0.64844,-0.35938 0.15624,-0.24218 0.23437,-0.57812 0.23437,-1.00781 0,-0.42969 -0.0781,-0.76432 -0.23437,-1.00391 -0.15626,-0.24218 -0.3724,-0.36327 -0.64844,-0.36328 m -2.02344,1.36719 c 0,-0.70573 0.18229,-1.26432 0.54688,-1.67578 0.36718,-0.41406 0.85937,-0.62109 1.47656,-0.6211 0.61979,1e-5 1.11198,0.20704 1.47656,0.6211 0.36719,0.41146 0.55078,0.97005 0.55078,1.67578 0,0.70573 -0.18359,1.26563 -0.55078,1.67969 -0.36458,0.41146 -0.85677,0.61718 -1.47656,0.61718 -0.61719,0 -1.10938,-0.20572 -1.47656,-0.61718 -0.36459,-0.41406 -0.54688,-0.97396 -0.54688,-1.67969"
           style="font-size:8px;font-variant:normal;font-weight:bold;font-stretch:normal;font-family:DejaVu Sans Mono;-inkscape-font-specification:DejaVu Sans Mono Bold;fill:#000000"
           id="path4593" />
        <path
           d="m 315.48047,275.64977 0,-3.375 -1.16016,0 0,-0.8789 2.30469,0 0,4.2539 c 0,0.34376 0.0534,0.58725 0.16016,0.73047 0.10676,0.14323 0.28775,0.21485 0.54296,0.21485 l 0.91407,0 0,0.8789 -1.23438,0 c -0.54427,0 -0.9349,-0.14062 -1.17187,-0.42187 -0.23698,-0.28125 -0.35547,-0.7487 -0.35547,-1.40235"
           style="font-size:8px;font-variant:normal;font-weight:bold;font-stretch:normal;font-family:DejaVu Sans Mono;-inkscape-font-specification:DejaVu Sans Mono Bold;fill:#000000"
           id="path4595" />
        <path
           d="m 320.29297,275.64977 0,-3.375 -1.16016,0 0,-0.8789 2.30469,0 0,4.2539 c 0,0.34376 0.0534,0.58725 0.16016,0.73047 0.10676,0.14323 0.28775,0.21485 0.54296,0.21485 l 0.91407,0 0,0.8789 -1.23438,0 c -0.54427,0 -0.9349,-0.14062 -1.17187,-0.42187 -0.23698,-0.28125 -0.35547,-0.7487 -0.35547,-1.40235"
           style="font-size:8px;font-variant:normal;font-weight:bold;font-stretch:normal;font-family:DejaVu Sans Mono;-inkscape-font-specification:DejaVu Sans Mono Bold;fill:#000000"
           id="path4597" />
        <path
           d="m 327.89844,277.25915 c -0.26563,0.10937 -0.53646,0.19141 -0.8125,0.24609 -0.27605,0.0547 -0.56771,0.082 -0.875,0.082 -0.73178,0 -1.29167,-0.19531 -1.67969,-0.58593 -0.38542,-0.39323 -0.57813,-0.95833 -0.57813,-1.69532 0,-0.71353 0.1862,-1.27734 0.5586,-1.6914 0.37239,-0.41406 0.88021,-0.62109 1.52344,-0.6211 0.64843,1e-5 1.15103,0.19272 1.50781,0.57813 0.35937,0.38282 0.53906,0.92318 0.53906,1.62109 l 0,0.46485 -2.96484,0 c 0.003,0.34375 0.10416,0.60026 0.30468,0.76953 0.20052,0.16927 0.5,0.25391 0.89844,0.2539 0.26302,1e-5 0.52213,-0.0378 0.77735,-0.11328 0.2552,-0.0755 0.52213,-0.19531 0.80078,-0.35937 l 0,1.05078 m -0.96875,-2.46094 c -0.005,-0.30208 -0.0833,-0.52994 -0.23438,-0.68359 -0.14844,-0.15625 -0.36849,-0.23437 -0.66015,-0.23438 -0.26303,10e-6 -0.47266,0.0807 -0.62891,0.24219 -0.15625,0.15886 -0.2487,0.38542 -0.27734,0.67969 l 1.80078,-0.004"
           style="font-size:8px;font-variant:normal;font-weight:bold;font-stretch:normal;font-family:DejaVu Sans Mono;-inkscape-font-specification:DejaVu Sans Mono Bold;fill:#000000"
           id="path4599" />
        <path
           d="m 332.55078,277.25134 c -0.19271,0.11198 -0.39974,0.19531 -0.62109,0.25 -0.22136,0.0573 -0.45964,0.0859 -0.71485,0.0859 -0.67448,0 -1.20182,-0.20312 -1.58203,-0.60937 -0.38021,-0.40625 -0.57031,-0.96875 -0.57031,-1.6875 0,-0.72135 0.19141,-1.28515 0.57422,-1.69141 0.38281,-0.40885 0.91145,-0.61327 1.58594,-0.61328 0.23437,1e-5 0.45963,0.0274 0.67578,0.082 0.21874,0.0547 0.43619,0.13933 0.65234,0.25391 l 0,1.04687 c -0.16667,-0.14322 -0.35026,-0.2526 -0.55078,-0.32812 -0.19792,-0.0781 -0.40365,-0.11718 -0.61719,-0.11719 -0.3724,1e-5 -0.65885,0.1185 -0.85937,0.35547 -0.20053,0.23698 -0.30079,0.57422 -0.30078,1.01172 -1e-5,0.4375 0.10025,0.77344 0.30078,1.00781 0.20052,0.23438 0.48697,0.35157 0.85937,0.35156 0.22135,1e-5 0.42838,-0.0365 0.6211,-0.10937 0.1927,-0.0755 0.37499,-0.1888 0.54687,-0.33984 l 0,1.05078"
           style="font-size:8px;font-variant:normal;font-weight:bold;font-stretch:normal;font-family:DejaVu Sans Mono;-inkscape-font-specification:DejaVu Sans Mono Bold;fill:#000000"
           id="path4601" />
        <path
           d="m 335.91406,271.85681 0,1.24218 1.4961,0 0,0.87891 -1.4961,0 0,2.07031 c 0,0.19532 0.0469,0.33594 0.14063,0.42188 0.0964,0.0833 0.2552,0.125 0.47656,0.125 l 0.87891,0 0,0.8789 -0.96094,0 c -0.65625,0 -1.10026,-0.10416 -1.33203,-0.3125 -0.23177,-0.21093 -0.34766,-0.60026 -0.34766,-1.16797 l 0,-2.01562 -1.11719,0 0,-0.87891 1.11719,0 0,-1.24218 1.14453,0"
           style="font-size:8px;font-variant:normal;font-weight:bold;font-stretch:normal;font-family:DejaVu Sans Mono;-inkscape-font-specification:DejaVu Sans Mono Bold;fill:#000000"
           id="path4603" />
        <path
           d="m 338.89453,273.09899 2.26563,0 0,3.4961 1.42187,0 0,0.8789 -3.99219,0 0,-0.8789 1.42578,0 0,-2.61719 -1.12109,0 0,-0.87891 m 1.12109,-2.1289 1.14454,0 0,1.33593 -1.14454,0 0,-1.33593"
           style="font-size:8px;font-variant:normal;font-weight:bold;font-stretch:normal;font-family:DejaVu Sans Mono;-inkscape-font-specification:DejaVu Sans Mono Bold;fill:#000000"
           id="path4605" />
        <path
           d="m 345.25,273.92321 c -0.27344,1e-5 -0.48828,0.1211 -0.64453,0.36328 -0.15625,0.23959 -0.23438,0.57422 -0.23438,1.00391 0,0.42969 0.0781,0.76563 0.23438,1.00781 0.15625,0.23959 0.37109,0.35938 0.64453,0.35938 0.27604,0 0.49218,-0.11979 0.64844,-0.35938 0.15624,-0.24218 0.23437,-0.57812 0.23437,-1.00781 0,-0.42969 -0.0781,-0.76432 -0.23437,-1.00391 -0.15626,-0.24218 -0.3724,-0.36327 -0.64844,-0.36328 m -2.02344,1.36719 c 0,-0.70573 0.18229,-1.26432 0.54688,-1.67578 0.36718,-0.41406 0.85937,-0.62109 1.47656,-0.6211 0.61979,1e-5 1.11198,0.20704 1.47656,0.6211 0.36719,0.41146 0.55078,0.97005 0.55078,1.67578 0,0.70573 -0.18359,1.26563 -0.55078,1.67969 -0.36458,0.41146 -0.85677,0.61718 -1.47656,0.61718 -0.61719,0 -1.10938,-0.20572 -1.47656,-0.61718 -0.36459,-0.41406 -0.54688,-0.97396 -0.54688,-1.67969"
           style="font-size:8px;font-variant:normal;font-weight:bold;font-stretch:normal;font-family:DejaVu Sans Mono;-inkscape-font-specification:DejaVu Sans Mono Bold;fill:#000000"
           id="path4607" />
        <path
           d="m 351.83984,274.63415 0,2.83984 -1.13672,0 0,-2.66406 c 0,-0.3177 -0.0456,-0.54427 -0.13671,-0.67969 -0.0885,-0.13801 -0.23438,-0.20702 -0.4375,-0.20703 -0.20574,1e-5 -0.3685,0.0925 -0.48829,0.27735 -0.11718,0.18489 -0.17578,0.4414 -0.17578,0.76953 l 0,2.5039 -1.13672,0 0,-4.375 1.13672,0 0,0.65625 c 0.0807,-0.24218 0.21875,-0.42968 0.41407,-0.5625 0.19531,-0.1328 0.43098,-0.19921 0.70703,-0.19922 0.41406,1e-5 0.72656,0.13803 0.9375,0.41407 0.21093,0.27344 0.3164,0.68229 0.3164,1.22656"
           style="font-size:8px;font-variant:normal;font-weight:bold;font-stretch:normal;font-family:DejaVu Sans Mono;-inkscape-font-specification:DejaVu Sans Mono Bold;fill:#000000"
           id="path4609" />
      </g>
    </g>
  </g>
</svg>
